<svg version="1.1" xmlns="http://www.w3.org/2000/svg" xmlns:xlink="http://www.w3.org/1999/xlink" width="1303.5117492675781" height="1165"><defs/><g><g transform="translate(-928,-741) scale(1,1)"><rect fill="#C0C0C0" stroke="none" x="1385" y="758" width="508.1162109375" height="145" opacity="0.2"/></g><g transform="translate(-928,-741) scale(1,1)"><rect fill="#ffffff" stroke="none" x="1378" y="751" width="508.1162109375" height="145"/></g><g transform="translate(-928,-741) scale(1,1)"><path fill="none" stroke="#000000" d="M 1378 751 L 1886.1162109375 751 L 1886.1162109375 896 L 1378 896 L 1378 751 Z Z" stroke-miterlimit="10"/></g><g transform="translate(-928,-741) scale(1,1)"><path fill="none" stroke="#000000" d="M 1378 791 L 1886.1162109375 791" stroke-miterlimit="10"/></g><g transform="translate(-928,-741) scale(1,1)"><path fill="none" stroke="#000000" d="M 1378 814 L 1886.1162109375 814" stroke-miterlimit="10"/></g><g transform="translate(-928,-741) scale(1,1)"><g><path fill="none" stroke="none"/><text fill="#000000" stroke="none" font-family="Source Sans Pro" font-size="13px" font-style="normal" font-weight="bold" text-decoration="none" x="1565.342185974121" y="770.5">DataAccessObjectHelper</text></g></g><g transform="translate(-928,-741) scale(1,1)"><g><path fill="none" stroke="none"/><text fill="#000000" stroke="none" font-family="Source Sans Pro" font-size="13px" font-style="normal" font-weight="normal" text-decoration="none" x="1544.620231628418" y="785.5">(from Data Access Object Model)</text></g></g><g transform="translate(-928,-741) scale(1,1)"><g><path fill="none" stroke="none"/><text fill="#000000" stroke="none" font-family="Source Sans Pro" font-size="13px" font-style="normal" font-weight="normal" text-decoration="none" x="1383" y="808.5">-objects: dict</text></g></g><g transform="translate(-928,-741) scale(1,1)"><g><path fill="none" stroke="none"/><text fill="#000000" stroke="none" font-family="Source Sans Pro" font-size="13px" font-style="normal" font-weight="normal" text-decoration="none" x="1383" y="831.5">-onInit(): void</text></g></g><g transform="translate(-928,-741) scale(1,1)"><g><path fill="none" stroke="none"/><text fill="#000000" stroke="none" font-family="Source Sans Pro" font-size="13px" font-style="normal" font-weight="normal" text-decoration="none" x="1383" y="846.5">+Get(key: string): DataAccessObject</text></g></g><g transform="translate(-928,-741) scale(1,1)"><g><path fill="none" stroke="none"/><text fill="#000000" stroke="none" font-family="Source Sans Pro" font-size="13px" font-style="normal" font-weight="normal" text-decoration="none" x="1383" y="861.5">+Set(key: string, connection: DataAccessObject)</text></g></g><g transform="translate(-928,-741) scale(1,1)"><g><path fill="none" stroke="none"/><text fill="#000000" stroke="none" font-family="Source Sans Pro" font-size="13px" font-style="normal" font-weight="normal" text-decoration="none" x="1383" y="876.5">-get(key: string): DataAccessObject</text></g></g><g transform="translate(-928,-741) scale(1,1)"><g><path fill="none" stroke="none"/><text fill="#000000" stroke="none" font-family="Source Sans Pro" font-size="13px" font-style="normal" font-weight="normal" text-decoration="none" x="1383" y="891.5">-set(key: string, connection: DataAccessObject)</text></g></g><g transform="translate(-928,-741) scale(1,1)"><rect fill="#C0C0C0" stroke="none" x="945" y="774" width="224.87744140625" height="115" opacity="0.2"/></g><g transform="translate(-928,-741) scale(1,1)"><rect fill="#ffffff" stroke="none" x="938" y="767" width="224.87744140625" height="115"/></g><g transform="translate(-928,-741) scale(1,1)"><path fill="none" stroke="#000000" d="M 938 767 L 1162.87744140625 767 L 1162.87744140625 882 L 938 882 L 938 767 Z Z" stroke-miterlimit="10"/></g><g transform="translate(-928,-741) scale(1,1)"><path fill="none" stroke="#000000" d="M 938 820 L 1162.87744140625 820" stroke-miterlimit="10"/></g><g transform="translate(-928,-741) scale(1,1)"><path fill="none" stroke="#000000" d="M 938 830 L 1162.87744140625 830" stroke-miterlimit="10"/></g><g transform="translate(-928,-741) scale(1,1)"><g><path fill="none" stroke="none"/><text fill="#000000" stroke="none" font-family="Source Sans Pro" font-size="13px" font-style="normal" font-weight="normal" text-decoration="none" x="1022.4237594604492" y="784.5">«abstract»</text></g></g><g transform="translate(-928,-741) scale(1,1)"><g><path fill="none" stroke="none"/><text fill="#000000" stroke="none" font-family="Source Sans Pro" font-size="13px" font-style="normal" font-weight="bold" text-decoration="none" x="1024.536262512207" y="799.5">Singleton</text></g></g><g transform="translate(-928,-741) scale(1,1)"><g><path fill="none" stroke="none"/><text fill="#000000" stroke="none" font-family="Source Sans Pro" font-size="13px" font-style="normal" font-weight="normal" text-decoration="none" x="974.2913284301758" y="814.5">(from Desgin Pattern Model)</text></g></g><g transform="translate(-928,-741) scale(1,1)"><g><path fill="none" stroke="none"/><text fill="#000000" stroke="none" font-family="Source Sans Pro" font-size="13px" font-style="normal" font-weight="normal" text-decoration="none" x="943" y="847.5">-GetInstance(*args, **kwargs): object</text></g></g><g transform="translate(-928,-741) scale(1,1)"><g><path fill="none" stroke="none"/><text fill="#000000" stroke="none" font-family="Source Sans Pro" font-size="13px" font-style="normal" font-weight="normal" text-decoration="none" x="943" y="862.5">+__new__(*args, **kwargs): object</text></g></g><g transform="translate(-928,-741) scale(1,1)"><g><path fill="none" stroke="none"/><text fill="#000000" stroke="none" font-family="Source Sans Pro" font-size="13px" font-style="normal" font-weight="normal" text-decoration="none" x="943" y="877.5">«abstract»#onInit(): void</text></g></g><g transform="translate(-928,-741) scale(1,1)"><path fill="none" stroke="#000000" d="M 1377 823 L 1164 824" stroke-miterlimit="10"/></g><g transform="translate(-928,-741) scale(1,1)"><path fill="#FFFFFF" stroke="none" d="M 1184.2856001658147 815.4856341450053 L 1164 824 L 1184.3646512712564 832.3235196041165"/></g><g transform="translate(-928,-741) scale(1,1)"><path fill="none" stroke="#000000" d="M 1184.2856001658147 815.4856341450053 L 1164 824 L 1184.3646512712564 832.3235196041165 L 1184.2856001658147 815.4856341450053" stroke-miterlimit="10"/></g><g transform="translate(-928,-741) scale(1,1)"><rect fill="#C0C0C0" stroke="none" x="1505" y="1118" width="277.83563232421875" height="71" opacity="0.2"/></g><g transform="translate(-928,-741) scale(1,1)"><rect fill="#ffffff" stroke="none" x="1498" y="1111" width="277.83563232421875" height="71"/></g><g transform="translate(-928,-741) scale(1,1)"><path fill="none" stroke="#000000" d="M 1498 1111 L 1775.8356323242188 1111 L 1775.8356323242188 1182 L 1498 1182 L 1498 1111 Z Z" stroke-miterlimit="10"/></g><g transform="translate(-928,-741) scale(1,1)"><path fill="none" stroke="#000000" d="M 1498 1161 L 1775.8356323242188 1161" stroke-miterlimit="10"/></g><g transform="translate(-928,-741) scale(1,1)"><g><path fill="none" stroke="none"/><text fill="#000000" stroke="none" font-family="나눔고딕" font-size="12px" font-style="normal" font-weight="normal" text-decoration="none" x="1601.301856994629" y="1127.5">«interface»</text></g></g><g transform="translate(-928,-741) scale(1,1)"><g><path fill="none" stroke="none"/><text fill="#000000" stroke="none" font-family="나눔고딕" font-size="12px" font-style="normal" font-weight="bold" text-decoration="none" x="1586.985855102539" y="1141.5">DataAccessObject</text></g></g><g transform="translate(-928,-741) scale(1,1)"><g><path fill="none" stroke="none"/><text fill="#000000" stroke="none" font-family="나눔고딕" font-size="12px" font-style="normal" font-weight="normal" text-decoration="none" x="1544.6619415283203" y="1155.5">(from Data Access Object Model)</text></g></g><g transform="translate(-928,-741) scale(1,1)"><g><path fill="none" stroke="none"/><text fill="#000000" stroke="none" font-family="나눔고딕" font-size="12px" font-style="normal" font-weight="normal" text-decoration="none" x="1503" y="1177.5">+__init__(conf: DataAccessObjectConfiguration)</text></g></g><g transform="translate(-928,-741) scale(1,1)"><rect fill="#C0C0C0" stroke="none" x="1985" y="1122" width="227.51174926757812" height="71" opacity="0.2"/></g><g transform="translate(-928,-741) scale(1,1)"><rect fill="#ffffff" stroke="none" x="1978" y="1115" width="227.51174926757812" height="71"/></g><g transform="translate(-928,-741) scale(1,1)"><path fill="none" stroke="#000000" d="M 1978 1115 L 2205.511749267578 1115 L 2205.511749267578 1186 L 1978 1186 L 1978 1115 Z Z" stroke-miterlimit="10"/></g><g transform="translate(-928,-741) scale(1,1)"><path fill="none" stroke="#000000" d="M 1978 1165 L 2205.511749267578 1165" stroke-miterlimit="10"/></g><g transform="translate(-928,-741) scale(1,1)"><g><path fill="none" stroke="none"/><text fill="#000000" stroke="none" font-family="나눔고딕" font-size="12px" font-style="normal" font-weight="normal" text-decoration="none" x="2056.1399154663086" y="1131.5">«interface»</text></g></g><g transform="translate(-928,-741) scale(1,1)"><g><path fill="none" stroke="none"/><text fill="#000000" stroke="none" font-family="나눔고딕" font-size="12px" font-style="normal" font-weight="bold" text-decoration="none" x="2003.2679824829102" y="1145.5">DataAccessObjectConfiguration</text></g></g><g transform="translate(-928,-741) scale(1,1)"><g><path fill="none" stroke="none"/><text fill="#000000" stroke="none" font-family="나눔고딕" font-size="12px" font-style="normal" font-weight="normal" text-decoration="none" x="1999.5" y="1159.5">(from Data Access Object Model)</text></g></g><g transform="translate(-928,-741) scale(1,1)"><g><path fill="none" stroke="none"/><text fill="#000000" stroke="none" font-family="나눔고딕" font-size="12px" font-style="normal" font-weight="normal" text-decoration="none" x="1983" y="1181.5">+__init__(*args, **kwargs)</text></g></g><g transform="translate(-928,-741) scale(1,1)"><rect fill="#C0C0C0" stroke="none" x="1017" y="1118" width="227.51174926757812" height="71" opacity="0.2"/></g><g transform="translate(-928,-741) scale(1,1)"><rect fill="#ffffff" stroke="none" x="1010" y="1111" width="227.51174926757812" height="71"/></g><g transform="translate(-928,-741) scale(1,1)"><path fill="none" stroke="#000000" d="M 1010 1111 L 1237.5117492675781 1111 L 1237.5117492675781 1182 L 1010 1182 L 1010 1111 Z Z" stroke-miterlimit="10"/></g><g transform="translate(-928,-741) scale(1,1)"><path fill="none" stroke="#000000" d="M 1010 1161 L 1237.5117492675781 1161" stroke-miterlimit="10"/></g><g transform="translate(-928,-741) scale(1,1)"><g><path fill="none" stroke="none"/><text fill="#000000" stroke="none" font-family="나눔고딕" font-size="12px" font-style="normal" font-weight="normal" text-decoration="none" x="1088.1399154663086" y="1127.5">«interface»</text></g></g><g transform="translate(-928,-741) scale(1,1)"><g><path fill="none" stroke="none"/><text fill="#000000" stroke="none" font-family="나눔고딕" font-size="12px" font-style="normal" font-weight="bold" text-decoration="none" x="1079.7459259033203" y="1141.5">DataTypeObject</text></g></g><g transform="translate(-928,-741) scale(1,1)"><g><path fill="none" stroke="none"/><text fill="#000000" stroke="none" font-family="나눔고딕" font-size="12px" font-style="normal" font-weight="normal" text-decoration="none" x="1031.5" y="1155.5">(from Data Access Object Model)</text></g></g><g transform="translate(-928,-741) scale(1,1)"><g><path fill="none" stroke="none"/><text fill="#000000" stroke="none" font-family="나눔고딕" font-size="12px" font-style="normal" font-weight="normal" text-decoration="none" x="1015" y="1177.5">+__init__(obj: DataAccessObject)</text></g></g><g transform="translate(-928,-741) scale(1,1)"><path fill="none" stroke="#000000" d="M 1977 1149 L 1777 1147" stroke-miterlimit="10"/></g><g transform="translate(-928,-741) scale(1,1)"><path fill="none" stroke="#000000" d="M 1497 1146 L 1239 1146" stroke-miterlimit="10"/></g><g transform="translate(-928,-741) scale(1,1)"><path fill="none" stroke="#000000" d="M 1636 1110 L 1633 897" stroke-miterlimit="10"/></g><g transform="translate(-928,-741) scale(1,1)"><rect fill="#C0C0C0" stroke="none" x="1585" y="1390" width="113.15989685058594" height="43" opacity="0.2"/></g><g transform="translate(-928,-741) scale(1,1)"><rect fill="#ffff91" stroke="none" x="1578" y="1383" width="113.15989685058594" height="43"/></g><g transform="translate(-928,-741) scale(1,1)"><path fill="none" stroke="#000000" d="M 1578 1383 L 1691.159896850586 1383 L 1691.159896850586 1426 L 1578 1426 L 1578 1383 Z Z" stroke-miterlimit="10"/></g><g transform="translate(-928,-741) scale(1,1)"><path fill="none" stroke="#000000" d="M 1578 1407 L 1691.159896850586 1407" stroke-miterlimit="10"/></g><g transform="translate(-928,-741) scale(1,1)"><path fill="none" stroke="#000000" d="M 1578 1417 L 1691.159896850586 1417" stroke-miterlimit="10"/></g><g transform="translate(-928,-741) scale(1,1)"><g><path fill="none" stroke="none"/><text fill="#000000" stroke="none" font-family="나눔고딕" font-size="12px" font-style="normal" font-weight="bold" text-decoration="none" x="1582.5" y="1401.5">ValueAccessObject</text></g></g><g transform="translate(-928,-741) scale(1,1)"><path fill="none" stroke="#000000" d="M 1634 1382 L 1636 1183" stroke-miterlimit="10" stroke-dasharray="3"/></g><g transform="translate(-928,-741) scale(1,1)"><path fill="#FFFFFF" stroke="none" d="M 1644.2143457955242 1203.4089324353713 L 1636 1183 L 1627.3771250931973 1203.2397141368556"/></g><g transform="translate(-928,-741) scale(1,1)"><path fill="none" stroke="#000000" d="M 1644.2143457955242 1203.4089324353713 L 1636 1183 L 1627.3771250931973 1203.2397141368556 L 1644.2143457955242 1203.4089324353713" stroke-miterlimit="10"/></g><g transform="translate(-928,-741) scale(1,1)"><rect fill="#C0C0C0" stroke="none" x="2001" y="1390" width="190.27175903320312" height="43" opacity="0.2"/></g><g transform="translate(-928,-741) scale(1,1)"><rect fill="#ffff91" stroke="none" x="1994" y="1383" width="190.27175903320312" height="43"/></g><g transform="translate(-928,-741) scale(1,1)"><path fill="none" stroke="#000000" d="M 1994 1383 L 2184.271759033203 1383 L 2184.271759033203 1426 L 1994 1426 L 1994 1383 Z Z" stroke-miterlimit="10"/></g><g transform="translate(-928,-741) scale(1,1)"><path fill="none" stroke="#000000" d="M 1994 1407 L 2184.271759033203 1407" stroke-miterlimit="10"/></g><g transform="translate(-928,-741) scale(1,1)"><path fill="none" stroke="#000000" d="M 1994 1417 L 2184.271759033203 1417" stroke-miterlimit="10"/></g><g transform="translate(-928,-741) scale(1,1)"><g><path fill="none" stroke="none"/><text fill="#000000" stroke="none" font-family="나눔고딕" font-size="12px" font-style="normal" font-weight="bold" text-decoration="none" x="1998.5" y="1401.5">ValueAccessObjectConfiguration</text></g></g><g transform="translate(-928,-741) scale(1,1)"><path fill="none" stroke="#000000" d="M 2089 1382 L 2091 1187" stroke-miterlimit="10" stroke-dasharray="3"/></g><g transform="translate(-928,-741) scale(1,1)"><path fill="#FFFFFF" stroke="none" d="M 2099.2101385696446 1207.4106252884922 L 2091 1187 L 2082.3729531073263 1207.2379362068273"/></g><g transform="translate(-928,-741) scale(1,1)"><path fill="none" stroke="#000000" d="M 2099.2101385696446 1207.4106252884922 L 2091 1187 L 2082.3729531073263 1207.2379362068273 L 2099.2101385696446 1207.4106252884922" stroke-miterlimit="10"/></g><g transform="translate(-928,-741) scale(1,1)"><path fill="none" stroke="#000000" d="M 1692 1404 L 1993 1404" stroke-miterlimit="10"/></g><g transform="translate(-928,-741) scale(1,1)"><rect fill="#C0C0C0" stroke="none" x="1081" y="1390" width="101.31587219238281" height="43" opacity="0.2"/></g><g transform="translate(-928,-741) scale(1,1)"><rect fill="#ffff91" stroke="none" x="1074" y="1383" width="101.31587219238281" height="43"/></g><g transform="translate(-928,-741) scale(1,1)"><path fill="none" stroke="#000000" d="M 1074 1383 L 1175.3158721923828 1383 L 1175.3158721923828 1426 L 1074 1426 L 1074 1383 Z Z" stroke-miterlimit="10"/></g><g transform="translate(-928,-741) scale(1,1)"><path fill="none" stroke="#000000" d="M 1074 1407 L 1175.3158721923828 1407" stroke-miterlimit="10"/></g><g transform="translate(-928,-741) scale(1,1)"><path fill="none" stroke="#000000" d="M 1074 1417 L 1175.3158721923828 1417" stroke-miterlimit="10"/></g><g transform="translate(-928,-741) scale(1,1)"><g><path fill="none" stroke="none"/><text fill="#000000" stroke="none" font-family="나눔고딕" font-size="12px" font-style="normal" font-weight="bold" text-decoration="none" x="1078.5" y="1401.5">ValueTypeObject</text></g></g><g transform="translate(-928,-741) scale(1,1)"><path fill="none" stroke="#000000" d="M 1577 1404 L 1176 1404" stroke-miterlimit="10"/></g><g transform="translate(-928,-741) scale(1,1)"><path fill="none" stroke="#000000" d="M 1124 1382 L 1123 1183" stroke-miterlimit="10" stroke-dasharray="3"/></g><g transform="translate(-928,-741) scale(1,1)"><path fill="#FFFFFF" stroke="none" d="M 1131.5210653619738 1203.2827869164216 L 1123 1183 L 1114.6832069304219 1203.367399270349"/></g><g transform="translate(-928,-741) scale(1,1)"><path fill="none" stroke="#000000" d="M 1131.5210653619738 1203.2827869164216 L 1123 1183 L 1114.6832069304219 1203.367399270349 L 1131.5210653619738 1203.2827869164216" stroke-miterlimit="10"/></g><g transform="translate(-928,-741) scale(1,1)"><rect fill="#C0C0C0" stroke="none" x="1417" y="1734" width="227.51174926757812" height="141" opacity="0.2"/></g><g transform="translate(-928,-741) scale(1,1)"><rect fill="#ffffff" stroke="none" x="1410" y="1727" width="227.51174926757812" height="141"/></g><g transform="translate(-928,-741) scale(1,1)"><path fill="none" stroke="#000000" d="M 1410 1727 L 1637.5117492675781 1727 L 1637.5117492675781 1868 L 1410 1868 L 1410 1727 Z Z" stroke-miterlimit="10"/></g><g transform="translate(-928,-741) scale(1,1)"><path fill="none" stroke="#000000" d="M 1410 1777 L 1637.5117492675781 1777" stroke-miterlimit="10"/></g><g transform="translate(-928,-741) scale(1,1)"><g><path fill="none" stroke="none"/><text fill="#000000" stroke="none" font-family="나눔고딕" font-size="12px" font-style="normal" font-weight="normal" text-decoration="none" x="1488.1399154663086" y="1743.5">«interface»</text></g></g><g transform="translate(-928,-741) scale(1,1)"><g><path fill="none" stroke="none"/><text fill="#000000" stroke="none" font-family="나눔고딕" font-size="12px" font-style="normal" font-weight="bold" text-decoration="none" x="1448.023941040039" y="1757.5">DatabaseDataAccessObject</text></g></g><g transform="translate(-928,-741) scale(1,1)"><g><path fill="none" stroke="none"/><text fill="#000000" stroke="none" font-family="나눔고딕" font-size="12px" font-style="normal" font-weight="normal" text-decoration="none" x="1431.5" y="1771.5">(from Data Access Object Model)</text></g></g><g transform="translate(-928,-741) scale(1,1)"><g><path fill="none" stroke="none"/><text fill="#000000" stroke="none" font-family="나눔고딕" font-size="12px" font-style="normal" font-weight="normal" text-decoration="none" x="1415" y="1793.5">+begin()</text></g></g><g transform="translate(-928,-741) scale(1,1)"><g><path fill="none" stroke="none"/><text fill="#000000" stroke="none" font-family="나눔고딕" font-size="12px" font-style="normal" font-weight="normal" text-decoration="none" x="1415" y="1807.5">+execute(sql: string, *args, **kwargs)</text></g></g><g transform="translate(-928,-741) scale(1,1)"><g><path fill="none" stroke="none"/><text fill="#000000" stroke="none" font-family="나눔고딕" font-size="12px" font-style="normal" font-weight="normal" text-decoration="none" x="1415" y="1821.5">+affected()</text></g></g><g transform="translate(-928,-741) scale(1,1)"><g><path fill="none" stroke="none"/><text fill="#000000" stroke="none" font-family="나눔고딕" font-size="12px" font-style="normal" font-weight="normal" text-decoration="none" x="1415" y="1835.5">+rows()</text></g></g><g transform="translate(-928,-741) scale(1,1)"><g><path fill="none" stroke="none"/><text fill="#000000" stroke="none" font-family="나눔고딕" font-size="12px" font-style="normal" font-weight="normal" text-decoration="none" x="1415" y="1849.5">+commit()</text></g></g><g transform="translate(-928,-741) scale(1,1)"><g><path fill="none" stroke="none"/><text fill="#000000" stroke="none" font-family="나눔고딕" font-size="12px" font-style="normal" font-weight="normal" text-decoration="none" x="1415" y="1863.5">+rollback()</text></g></g><g transform="translate(-928,-741) scale(1,1)"><rect fill="#C0C0C0" stroke="none" x="1712" y="1734" width="227.51174926757812" height="141" opacity="0.2"/></g><g transform="translate(-928,-741) scale(1,1)"><rect fill="#ffffff" stroke="none" x="1705" y="1727" width="227.51174926757812" height="141"/></g><g transform="translate(-928,-741) scale(1,1)"><path fill="none" stroke="#000000" d="M 1705 1727 L 1932.5117492675781 1727 L 1932.5117492675781 1868 L 1705 1868 L 1705 1727 Z Z" stroke-miterlimit="10"/></g><g transform="translate(-928,-741) scale(1,1)"><path fill="none" stroke="#000000" d="M 1705 1777 L 1932.5117492675781 1777" stroke-miterlimit="10"/></g><g transform="translate(-928,-741) scale(1,1)"><g><path fill="none" stroke="none"/><text fill="#000000" stroke="none" font-family="나눔고딕" font-size="12px" font-style="normal" font-weight="normal" text-decoration="none" x="1783.1399154663086" y="1743.5">«interface»</text></g></g><g transform="translate(-928,-741) scale(1,1)"><g><path fill="none" stroke="none"/><text fill="#000000" stroke="none" font-family="나눔고딕" font-size="12px" font-style="normal" font-weight="bold" text-decoration="none" x="1739.7539443969727" y="1757.5">DocumentDataAccessObject</text></g></g><g transform="translate(-928,-741) scale(1,1)"><g><path fill="none" stroke="none"/><text fill="#000000" stroke="none" font-family="나눔고딕" font-size="12px" font-style="normal" font-weight="normal" text-decoration="none" x="1726.5" y="1771.5">(from Data Access Object Model)</text></g></g><g transform="translate(-928,-741) scale(1,1)"><g><path fill="none" stroke="none"/><text fill="#000000" stroke="none" font-family="나눔고딕" font-size="12px" font-style="normal" font-weight="normal" text-decoration="none" x="1710" y="1793.5">+create(doc: string, **kwargs)</text></g></g><g transform="translate(-928,-741) scale(1,1)"><g><path fill="none" stroke="none"/><text fill="#000000" stroke="none" font-family="나눔고딕" font-size="12px" font-style="normal" font-weight="normal" text-decoration="none" x="1710" y="1807.5">+set(doc: string, **kwargs)</text></g></g><g transform="translate(-928,-741) scale(1,1)"><g><path fill="none" stroke="none"/><text fill="#000000" stroke="none" font-family="나눔고딕" font-size="12px" font-style="normal" font-weight="normal" text-decoration="none" x="1710" y="1821.5">+get(doc: string, **kwargs)</text></g></g><g transform="translate(-928,-741) scale(1,1)"><g><path fill="none" stroke="none"/><text fill="#000000" stroke="none" font-family="나눔고딕" font-size="12px" font-style="normal" font-weight="normal" text-decoration="none" x="1710" y="1835.5">+query(doc: string, **kwargs)</text></g></g><g transform="translate(-928,-741) scale(1,1)"><g><path fill="none" stroke="none"/><text fill="#000000" stroke="none" font-family="나눔고딕" font-size="12px" font-style="normal" font-weight="normal" text-decoration="none" x="1710" y="1849.5">+remove(doc: string, **kwargs)</text></g></g><g transform="translate(-928,-741) scale(1,1)"><g><path fill="none" stroke="none"/><text fill="#000000" stroke="none" font-family="나눔고딕" font-size="12px" font-style="normal" font-weight="normal" text-decoration="none" x="1710" y="1863.5">+delete(doc: string)</text></g></g><g transform="translate(-928,-741) scale(1,1)"><rect fill="#C0C0C0" stroke="none" x="2001" y="1734" width="227.51174926757812" height="169" opacity="0.2"/></g><g transform="translate(-928,-741) scale(1,1)"><rect fill="#ffffff" stroke="none" x="1994" y="1727" width="227.51174926757812" height="169"/></g><g transform="translate(-928,-741) scale(1,1)"><path fill="none" stroke="#000000" d="M 1994 1727 L 2221.511749267578 1727 L 2221.511749267578 1896 L 1994 1896 L 1994 1727 Z Z" stroke-miterlimit="10"/></g><g transform="translate(-928,-741) scale(1,1)"><path fill="none" stroke="#000000" d="M 1994 1777 L 2221.511749267578 1777" stroke-miterlimit="10"/></g><g transform="translate(-928,-741) scale(1,1)"><g><path fill="none" stroke="none"/><text fill="#000000" stroke="none" font-family="나눔고딕" font-size="12px" font-style="normal" font-weight="normal" text-decoration="none" x="2072.1399154663086" y="1743.5">«interface»</text></g></g><g transform="translate(-928,-741) scale(1,1)"><g><path fill="none" stroke="none"/><text fill="#000000" stroke="none" font-family="나눔고딕" font-size="12px" font-style="normal" font-weight="bold" text-decoration="none" x="2042.7699356079102" y="1757.5">IndexDataAccessObject</text></g></g><g transform="translate(-928,-741) scale(1,1)"><g><path fill="none" stroke="none"/><text fill="#000000" stroke="none" font-family="나눔고딕" font-size="12px" font-style="normal" font-weight="normal" text-decoration="none" x="2015.5" y="1771.5">(from Data Access Object Model)</text></g></g><g transform="translate(-928,-741) scale(1,1)"><g><path fill="none" stroke="none"/><text fill="#000000" stroke="none" font-family="나눔고딕" font-size="12px" font-style="normal" font-weight="normal" text-decoration="none" x="1999" y="1793.5">+create(index: string, *args, **kwargs)</text></g></g><g transform="translate(-928,-741) scale(1,1)"><g><path fill="none" stroke="none"/><text fill="#000000" stroke="none" font-family="나눔고딕" font-size="12px" font-style="normal" font-weight="normal" text-decoration="none" x="1999" y="1807.5">+delete(index: string)</text></g></g><g transform="translate(-928,-741) scale(1,1)"><g><path fill="none" stroke="none"/><text fill="#000000" stroke="none" font-family="나눔고딕" font-size="12px" font-style="normal" font-weight="normal" text-decoration="none" x="1999" y="1821.5">+total(index: string)</text></g></g><g transform="translate(-928,-741) scale(1,1)"><g><path fill="none" stroke="none"/><text fill="#000000" stroke="none" font-family="나눔고딕" font-size="12px" font-style="normal" font-weight="normal" text-decoration="none" x="1999" y="1835.5">+set(index: string, *args, **kwargs)</text></g></g><g transform="translate(-928,-741) scale(1,1)"><g><path fill="none" stroke="none"/><text fill="#000000" stroke="none" font-family="나눔고딕" font-size="12px" font-style="normal" font-weight="normal" text-decoration="none" x="1999" y="1849.5">+get(index: string, id: string)</text></g></g><g transform="translate(-928,-741) scale(1,1)"><g><path fill="none" stroke="none"/><text fill="#000000" stroke="none" font-family="나눔고딕" font-size="12px" font-style="normal" font-weight="normal" text-decoration="none" x="1999" y="1863.5">+exists(index: string, id: string)</text></g></g><g transform="translate(-928,-741) scale(1,1)"><g><path fill="none" stroke="none"/><text fill="#000000" stroke="none" font-family="나눔고딕" font-size="12px" font-style="normal" font-weight="normal" text-decoration="none" x="1999" y="1877.5">+count(index: string, *args, **kwargs)</text></g></g><g transform="translate(-928,-741) scale(1,1)"><g><path fill="none" stroke="none"/><text fill="#000000" stroke="none" font-family="나눔고딕" font-size="12px" font-style="normal" font-weight="normal" text-decoration="none" x="1999" y="1891.5">+query(index: string, *args, **kwargs)</text></g></g><g transform="translate(-928,-741) scale(1,1)"><rect fill="#C0C0C0" stroke="none" x="1041" y="1734" width="308.867431640625" height="155" opacity="0.2"/></g><g transform="translate(-928,-741) scale(1,1)"><rect fill="#ffffff" stroke="none" x="1034" y="1727" width="308.867431640625" height="155"/></g><g transform="translate(-928,-741) scale(1,1)"><path fill="none" stroke="#000000" d="M 1034 1727 L 1342.867431640625 1727 L 1342.867431640625 1882 L 1034 1882 L 1034 1727 Z Z" stroke-miterlimit="10"/></g><g transform="translate(-928,-741) scale(1,1)"><path fill="none" stroke="#000000" d="M 1034 1777 L 1342.867431640625 1777" stroke-miterlimit="10"/></g><g transform="translate(-928,-741) scale(1,1)"><g><path fill="none" stroke="none"/><text fill="#000000" stroke="none" font-family="나눔고딕" font-size="12px" font-style="normal" font-weight="normal" text-decoration="none" x="1152.817756652832" y="1743.5">«interface»</text></g></g><g transform="translate(-928,-741) scale(1,1)"><g><path fill="none" stroke="none"/><text fill="#000000" stroke="none" font-family="나눔고딕" font-size="12px" font-style="normal" font-weight="bold" text-decoration="none" x="1121.3897705078125" y="1757.5">CacheDataAccessObject</text></g></g><g transform="translate(-928,-741) scale(1,1)"><g><path fill="none" stroke="none"/><text fill="#000000" stroke="none" font-family="나눔고딕" font-size="12px" font-style="normal" font-weight="normal" text-decoration="none" x="1096.1778411865234" y="1771.5">(from Data Access Object Model)</text></g></g><g transform="translate(-928,-741) scale(1,1)"><g><path fill="none" stroke="none"/><text fill="#000000" stroke="none" font-family="나눔고딕" font-size="12px" font-style="normal" font-weight="normal" text-decoration="none" x="1039" y="1793.5">+keys(key: string)</text></g></g><g transform="translate(-928,-741) scale(1,1)"><g><path fill="none" stroke="none"/><text fill="#000000" stroke="none" font-family="나눔고딕" font-size="12px" font-style="normal" font-weight="normal" text-decoration="none" x="1039" y="1807.5">+exists(key: string)</text></g></g><g transform="translate(-928,-741) scale(1,1)"><g><path fill="none" stroke="none"/><text fill="#000000" stroke="none" font-family="나눔고딕" font-size="12px" font-style="normal" font-weight="normal" text-decoration="none" x="1039" y="1821.5">+get(key: string)</text></g></g><g transform="translate(-928,-741) scale(1,1)"><g><path fill="none" stroke="none"/><text fill="#000000" stroke="none" font-family="나눔고딕" font-size="12px" font-style="normal" font-weight="normal" text-decoration="none" x="1039" y="1835.5">+set(key: string, value: string, expires: integer = None)</text></g></g><g transform="translate(-928,-741) scale(1,1)"><g><path fill="none" stroke="none"/><text fill="#000000" stroke="none" font-family="나눔고딕" font-size="12px" font-style="normal" font-weight="normal" text-decoration="none" x="1039" y="1849.5">+expire(key: string, seconds: int)</text></g></g><g transform="translate(-928,-741) scale(1,1)"><g><path fill="none" stroke="none"/><text fill="#000000" stroke="none" font-family="나눔고딕" font-size="12px" font-style="normal" font-weight="normal" text-decoration="none" x="1039" y="1863.5">+persist(key: string)</text></g></g><g transform="translate(-928,-741) scale(1,1)"><g><path fill="none" stroke="none"/><text fill="#000000" stroke="none" font-family="나눔고딕" font-size="12px" font-style="normal" font-weight="normal" text-decoration="none" x="1039" y="1877.5">+delete(key: string)</text></g></g><g transform="translate(-928,-741) scale(1,1)"><path fill="none" stroke="#000000" d="M 1628 1427 L 1543 1726" stroke-miterlimit="10" stroke-dasharray="3"/></g><g transform="translate(-928,-741) scale(1,1)"><path fill="#FFFFFF" stroke="none" d="M 1540.4597267798383 1704.1471509416522 L 1543 1726 L 1556.6560533373608 1708.7514578225532"/></g><g transform="translate(-928,-741) scale(1,1)"><path fill="none" stroke="#000000" d="M 1540.4597267798383 1704.1471509416522 L 1543 1726 L 1556.6560533373608 1708.7514578225532 L 1540.4597267798383 1704.1471509416522" stroke-miterlimit="10"/></g><g transform="translate(-928,-741) scale(1,1)"><path fill="none" stroke="#000000" d="M 1645 1427 L 1785 1726" stroke-miterlimit="10" stroke-dasharray="3"/></g><g transform="translate(-928,-741) scale(1,1)"><path fill="#FFFFFF" stroke="none" d="M 1768.756498768469 1711.162592283648 L 1785 1726 L 1784.0057417404346 1704.0224785175105"/></g><g transform="translate(-928,-741) scale(1,1)"><path fill="none" stroke="#000000" d="M 1768.756498768469 1711.162592283648 L 1785 1726 L 1784.0057417404346 1704.0224785175105 L 1768.756498768469 1711.162592283648" stroke-miterlimit="10"/></g><g transform="translate(-928,-741) scale(1,1)"><path fill="none" stroke="#000000" d="M 1608 1427 L 1275 1726" stroke-miterlimit="10" stroke-dasharray="3"/></g><g transform="translate(-928,-741) scale(1,1)"><path fill="#FFFFFF" stroke="none" d="M 1284.4987523106079 1706.156267877697 L 1275 1726 L 1295.748269719372 1718.6849946239124"/></g><g transform="translate(-928,-741) scale(1,1)"><path fill="none" stroke="#000000" d="M 1284.4987523106079 1706.156267877697 L 1275 1726 L 1295.748269719372 1718.6849946239124 L 1284.4987523106079 1706.156267877697" stroke-miterlimit="10"/></g><g transform="translate(-928,-741) scale(1,1)"><path fill="none" stroke="#000000" d="M 1661 1427 L 2008 1726" stroke-miterlimit="10" stroke-dasharray="3"/></g><g transform="translate(-928,-741) scale(1,1)"><path fill="#FFFFFF" stroke="none" d="M 1987.1066838446777 1719.1102002907376 L 2008 1726 L 1998.0980185605338 1706.3543703696607"/></g><g transform="translate(-928,-741) scale(1,1)"><path fill="none" stroke="#000000" d="M 1987.1066838446777 1719.1102002907376 L 2008 1726 L 1998.0980185605338 1706.3543703696607 L 1987.1066838446777 1719.1102002907376" stroke-miterlimit="10"/></g></g></svg>