<svg version="1.1" xmlns="http://www.w3.org/2000/svg" xmlns:xlink="http://www.w3.org/1999/xlink" width="739.4757080078125" height="959"><defs/><g><g transform="translate(-102,-78) scale(1,1)"><rect fill="#C0C0C0" stroke="none" x="295" y="231" width="138.86376953125" height="135" opacity="0.2"/></g><g transform="translate(-102,-78) scale(1,1)"><rect fill="#ffffff" stroke="none" x="288" y="224" width="138.86376953125" height="135"/></g><g transform="translate(-102,-78) scale(1,1)"><path fill="none" stroke="#000000" d="M 288 224 L 426.86376953125 224 L 426.86376953125 359 L 288 359 L 288 224 Z Z" stroke-miterlimit="10"/></g><g transform="translate(-102,-78) scale(1,1)"><path fill="none" stroke="#000000" d="M 288 260 L 426.86376953125 260" stroke-miterlimit="10"/></g><g transform="translate(-102,-78) scale(1,1)"><path fill="none" stroke="#000000" d="M 288 296 L 426.86376953125 296" stroke-miterlimit="10"/></g><g transform="translate(-102,-78) scale(1,1)"><g><path fill="none" stroke="none"/><text fill="#000000" stroke="none" font-family="나눔고딕" font-size="12px" font-style="normal" font-weight="normal" text-decoration="none" x="323.9939193725586" y="240.5">«abstract»</text></g></g><g transform="translate(-102,-78) scale(1,1)"><g><path fill="none" stroke="none"/><text fill="#000000" stroke="none" font-family="나눔고딕" font-size="12px" font-style="normal" font-weight="bold" text-decoration="none" x="313.42193603515625" y="254.5">DataTypeObject</text></g></g><g transform="translate(-102,-78) scale(1,1)"><g><path fill="none" stroke="none"/><text fill="#000000" stroke="none" font-family="나눔고딕" font-size="12px" font-style="normal" font-weight="normal" text-decoration="none" x="293" y="276.5">-validator: Validator</text></g></g><g transform="translate(-102,-78) scale(1,1)"><g><path fill="none" stroke="none"/><text fill="#000000" stroke="none" font-family="나눔고딕" font-size="12px" font-style="normal" font-weight="normal" text-decoration="none" x="293" y="290.5">-__object__</text></g></g><g transform="translate(-102,-78) scale(1,1)"><g><path fill="none" stroke="none"/><text fill="#000000" stroke="none" font-family="나눔고딕" font-size="12px" font-style="normal" font-weight="normal" text-decoration="none" x="293" y="312.5">+__init__(v: any, *args)</text></g></g><g transform="translate(-102,-78) scale(1,1)"><g><path fill="none" stroke="none"/><text fill="#000000" stroke="none" font-family="나눔고딕" font-size="12px" font-style="normal" font-weight="normal" text-decoration="none" x="293" y="326.5">+__repr__(): string</text></g></g><g transform="translate(-102,-78) scale(1,1)"><g><path fill="none" stroke="none"/><text fill="#000000" stroke="none" font-family="나눔고딕" font-size="12px" font-style="normal" font-weight="normal" text-decoration="none" x="293" y="340.5">+value(): any</text></g></g><g transform="translate(-102,-78) scale(1,1)"><g><path fill="none" stroke="none"/><text fill="#000000" stroke="none" font-family="나눔고딕" font-size="12px" font-style="normal" font-weight="normal" text-decoration="none" x="293" y="354.5">+set(v: any)</text></g></g><g transform="translate(-102,-78) scale(1,1)"><rect fill="#C0C0C0" stroke="none" x="639" y="735" width="199.4757080078125" height="81" opacity="0.2"/></g><g transform="translate(-102,-78) scale(1,1)"><rect fill="#ffffff" stroke="none" x="632" y="728" width="199.4757080078125" height="81"/></g><g transform="translate(-102,-78) scale(1,1)"><path fill="none" stroke="#000000" d="M 632 728 L 831.4757080078125 728 L 831.4757080078125 809 L 632 809 L 632 728 Z Z" stroke-miterlimit="10"/></g><g transform="translate(-102,-78) scale(1,1)"><path fill="none" stroke="#000000" d="M 632 764 L 831.4757080078125 764" stroke-miterlimit="10"/></g><g transform="translate(-102,-78) scale(1,1)"><path fill="none" stroke="#000000" d="M 632 774 L 831.4757080078125 774" stroke-miterlimit="10"/></g><g transform="translate(-102,-78) scale(1,1)"><g><path fill="none" stroke="none"/><text fill="#000000" stroke="none" font-family="나눔고딕" font-size="12px" font-style="normal" font-weight="normal" text-decoration="none" x="698.2998886108398" y="744.5">«abstract»</text></g></g><g transform="translate(-102,-78) scale(1,1)"><g><path fill="none" stroke="none"/><text fill="#000000" stroke="none" font-family="나눔고딕" font-size="12px" font-style="normal" font-weight="bold" text-decoration="none" x="682.5259094238281" y="758.5">DataModelObject</text></g></g><g transform="translate(-102,-78) scale(1,1)"><g><path fill="none" stroke="none"/><text fill="#000000" stroke="none" font-family="나눔고딕" font-size="12px" font-style="normal" font-weight="normal" text-decoration="none" x="637" y="790.5">+__init__(*args, **kwargs)</text></g></g><g transform="translate(-102,-78) scale(1,1)"><g><path fill="none" stroke="none"/><text fill="#000000" stroke="none" font-family="나눔고딕" font-size="12px" font-style="normal" font-weight="normal" text-decoration="none" x="637" y="804.5">+CreateInstance(*args, **kwargs)</text></g></g><g transform="translate(-102,-78) scale(1,1)"><rect fill="#C0C0C0" stroke="none" x="664" y="252" width="153.6477813720703" height="95" opacity="0.2"/></g><g transform="translate(-102,-78) scale(1,1)"><rect fill="#ffffff" stroke="none" x="657" y="245" width="153.6477813720703" height="95"/></g><g transform="translate(-102,-78) scale(1,1)"><path fill="none" stroke="#000000" d="M 657 245 L 810.6477813720703 245 L 810.6477813720703 340 L 657 340 L 657 245 Z Z" stroke-miterlimit="10"/></g><g transform="translate(-102,-78) scale(1,1)"><path fill="none" stroke="#000000" d="M 657 283 L 810.6477813720703 283" stroke-miterlimit="10"/></g><g transform="translate(-102,-78) scale(1,1)"><path fill="none" stroke="#000000" d="M 657 305 L 810.6477813720703 305" stroke-miterlimit="10"/></g><g transform="translate(-102,-78) scale(1,1)"><g><path fill="none" stroke="none"/><text fill="#000000" stroke="none" font-family="나눔고딕" font-size="12px" font-style="normal" font-weight="bold" text-decoration="none" x="709.1519393920898" y="263.5">Validator</text></g></g><g transform="translate(-102,-78) scale(1,1)"><g><path fill="none" stroke="none"/><text fill="#000000" stroke="none" font-family="나눔고딕" font-size="12px" font-style="normal" font-weight="normal" text-decoration="none" x="670.1880111694336" y="277.5">(from Validator Model)</text></g></g><g transform="translate(-102,-78) scale(1,1)"><g><path fill="none" stroke="none"/><text fill="#000000" stroke="none" font-family="나눔고딕" font-size="12px" font-style="normal" font-weight="normal" text-decoration="none" x="662" y="299.5">-patterns: list&lt;Pattern&gt;</text></g></g><g transform="translate(-102,-78) scale(1,1)"><g><path fill="none" stroke="none"/><text fill="#000000" stroke="none" font-family="나눔고딕" font-size="12px" font-style="normal" font-weight="normal" text-decoration="none" x="662" y="321.5">+__init__(*args)</text></g></g><g transform="translate(-102,-78) scale(1,1)"><g><path fill="none" stroke="none"/><text fill="#000000" stroke="none" font-family="나눔고딕" font-size="12px" font-style="normal" font-weight="normal" text-decoration="none" x="662" y="335.5">+__call__(parameter): any</text></g></g><g transform="translate(-102,-78) scale(1,1)"><rect fill="#C0C0C0" stroke="none" x="671" y="95" width="136.27175903320312" height="71" opacity="0.2"/></g><g transform="translate(-102,-78) scale(1,1)"><rect fill="#ffffff" stroke="none" x="664" y="88" width="136.27175903320312" height="71"/></g><g transform="translate(-102,-78) scale(1,1)"><path fill="none" stroke="#000000" d="M 664 88 L 800.2717590332031 88 L 800.2717590332031 159 L 664 159 L 664 88 Z Z" stroke-miterlimit="10"/></g><g transform="translate(-102,-78) scale(1,1)"><path fill="none" stroke="#000000" d="M 664 138 L 800.2717590332031 138" stroke-miterlimit="10"/></g><g transform="translate(-102,-78) scale(1,1)"><g><path fill="none" stroke="none"/><text fill="#000000" stroke="none" font-family="나눔고딕" font-size="12px" font-style="normal" font-weight="normal" text-decoration="none" x="696.5199203491211" y="104.5">«interface»</text></g></g><g transform="translate(-102,-78) scale(1,1)"><g><path fill="none" stroke="none"/><text fill="#000000" stroke="none" font-family="나눔고딕" font-size="12px" font-style="normal" font-weight="bold" text-decoration="none" x="712.2039184570312" y="118.5">Pattern</text></g></g><g transform="translate(-102,-78) scale(1,1)"><g><path fill="none" stroke="none"/><text fill="#000000" stroke="none" font-family="나눔고딕" font-size="12px" font-style="normal" font-weight="normal" text-decoration="none" x="668.5" y="132.5">(from Validator Model)</text></g></g><g transform="translate(-102,-78) scale(1,1)"><g><path fill="none" stroke="none"/><text fill="#000000" stroke="none" font-family="나눔고딕" font-size="12px" font-style="normal" font-weight="normal" text-decoration="none" x="669" y="154.5">+__call__(parameter)</text></g></g><g transform="translate(-102,-78) scale(1,1)"><path fill="none" stroke="#000000" d="M 732 160 L 733 244" stroke-miterlimit="10"/></g><g transform="translate(-102,-78) scale(1,1)"><path fill="#FFFFFF" stroke="none" d="M 728.6698048535117 233.88815496591602 L 733 244 L 737.0882438419653 233.7879354541487 L 732.7381137951337 222.00155879123022"/></g><g transform="translate(-102,-78) scale(1,1)"><path fill="none" stroke="#000000" d="M 728.6698048535117 233.88815496591602 L 733 244 L 737.0882438419653 233.7879354541487 L 732.7381137951337 222.00155879123022 L 728.6698048535117 233.88815496591602" stroke-miterlimit="10"/></g><g transform="translate(-102,-78) scale(1,1)"><path fill="none" stroke="#000000" d="M 428 291 L 656 292" stroke-miterlimit="10"/></g><g transform="translate(-102,-78) scale(1,1)"><rect fill="#C0C0C0" stroke="none" x="639" y="527" width="199.4757080078125" height="95" opacity="0.2"/></g><g transform="translate(-102,-78) scale(1,1)"><rect fill="#ffffff" stroke="none" x="632" y="520" width="199.4757080078125" height="95"/></g><g transform="translate(-102,-78) scale(1,1)"><path fill="none" stroke="#000000" d="M 632 520 L 831.4757080078125 520 L 831.4757080078125 615 L 632 615 L 632 520 Z Z" stroke-miterlimit="10"/></g><g transform="translate(-102,-78) scale(1,1)"><path fill="none" stroke="#000000" d="M 632 570 L 831.4757080078125 570" stroke-miterlimit="10"/></g><g transform="translate(-102,-78) scale(1,1)"><path fill="none" stroke="#000000" d="M 632 580 L 831.4757080078125 580" stroke-miterlimit="10"/></g><g transform="translate(-102,-78) scale(1,1)"><g><path fill="none" stroke="none"/><text fill="#000000" stroke="none" font-family="나눔고딕" font-size="12px" font-style="normal" font-weight="normal" text-decoration="none" x="698.2998886108398" y="536.5">«abstract»</text></g></g><g transform="translate(-102,-78) scale(1,1)"><g><path fill="none" stroke="none"/><text fill="#000000" stroke="none" font-family="나눔고딕" font-size="12px" font-style="normal" font-weight="bold" text-decoration="none" x="711.9858856201172" y="550.5">Factory</text></g></g><g transform="translate(-102,-78) scale(1,1)"><g><path fill="none" stroke="none"/><text fill="#000000" stroke="none" font-family="나눔고딕" font-size="12px" font-style="normal" font-weight="normal" text-decoration="none" x="652.2619934082031" y="564.5">(from Desgin Pattern Model)</text></g></g><g transform="translate(-102,-78) scale(1,1)"><g><path fill="none" stroke="none"/><text fill="#000000" stroke="none" font-family="나눔고딕" font-size="12px" font-style="normal" font-weight="normal" text-decoration="none" x="637" y="596.5">+__new__(*args, **kwargs)</text></g></g><g transform="translate(-102,-78) scale(1,1)"><g><path fill="none" stroke="none"/><text fill="#000000" stroke="none" font-family="나눔고딕" font-size="12px" font-style="normal" font-weight="normal" text-decoration="none" x="637" y="610.5">+CreateInstance(*args, **kwargs)</text></g></g><g transform="translate(-102,-78) scale(1,1)"><path fill="none" stroke="#000000" d="M 731 727 L 731 616" stroke-miterlimit="10"/></g><g transform="translate(-102,-78) scale(1,1)"><path fill="#FFFFFF" stroke="none" d="M 739.419035512032 636.3253497152483 L 731 616 L 722.580964487968 636.3253497152483"/></g><g transform="translate(-102,-78) scale(1,1)"><path fill="none" stroke="#000000" d="M 739.419035512032 636.3253497152483 L 731 616 L 722.580964487968 636.3253497152483 L 739.419035512032 636.3253497152483" stroke-miterlimit="10"/></g><g transform="translate(-102,-78) scale(1,1)"><rect fill="#C0C0C0" stroke="none" x="159" y="575" width="50.0625" height="43" opacity="0.2"/></g><g transform="translate(-102,-78) scale(1,1)"><rect fill="#ffffff" stroke="none" x="152" y="568" width="50.0625" height="43"/></g><g transform="translate(-102,-78) scale(1,1)"><path fill="none" stroke="#000000" d="M 152 568 L 202.0625 568 L 202.0625 611 L 152 611 L 152 568 Z Z" stroke-miterlimit="10"/></g><g transform="translate(-102,-78) scale(1,1)"><path fill="none" stroke="#000000" d="M 152 592 L 202.0625 592" stroke-miterlimit="10"/></g><g transform="translate(-102,-78) scale(1,1)"><path fill="none" stroke="#000000" d="M 152 602 L 202.0625 602" stroke-miterlimit="10"/></g><g transform="translate(-102,-78) scale(1,1)"><g><path fill="none" stroke="none"/><text fill="#000000" stroke="none" font-family="나눔고딕" font-size="12px" font-style="normal" font-weight="bold" text-decoration="none" x="157.41128540039062" y="586.5">Integer</text></g></g><g transform="translate(-102,-78) scale(1,1)"><rect fill="#C0C0C0" stroke="none" x="247" y="575" width="37.1484375" height="43" opacity="0.2"/></g><g transform="translate(-102,-78) scale(1,1)"><rect fill="#ffffff" stroke="none" x="240" y="568" width="37.1484375" height="43"/></g><g transform="translate(-102,-78) scale(1,1)"><path fill="none" stroke="#000000" d="M 240 568 L 277.1484375 568 L 277.1484375 611 L 240 611 L 240 568 Z Z" stroke-miterlimit="10"/></g><g transform="translate(-102,-78) scale(1,1)"><path fill="none" stroke="#000000" d="M 240 592 L 277.1484375 592" stroke-miterlimit="10"/></g><g transform="translate(-102,-78) scale(1,1)"><path fill="none" stroke="#000000" d="M 240 602 L 277.1484375 602" stroke-miterlimit="10"/></g><g transform="translate(-102,-78) scale(1,1)"><g><path fill="none" stroke="none"/><text fill="#000000" stroke="none" font-family="나눔고딕" font-size="12px" font-style="normal" font-weight="bold" text-decoration="none" x="245.0202407836914" y="586.5">Float</text></g></g><g transform="translate(-102,-78) scale(1,1)"><rect fill="#C0C0C0" stroke="none" x="319" y="575" width="43.23046875" height="43" opacity="0.2"/></g><g transform="translate(-102,-78) scale(1,1)"><rect fill="#ffffff" stroke="none" x="312" y="568" width="43.23046875" height="43"/></g><g transform="translate(-102,-78) scale(1,1)"><path fill="none" stroke="#000000" d="M 312 568 L 355.23046875 568 L 355.23046875 611 L 312 611 L 312 568 Z Z" stroke-miterlimit="10"/></g><g transform="translate(-102,-78) scale(1,1)"><path fill="none" stroke="#000000" d="M 312 592 L 355.23046875 592" stroke-miterlimit="10"/></g><g transform="translate(-102,-78) scale(1,1)"><path fill="none" stroke="#000000" d="M 312 602 L 355.23046875 602" stroke-miterlimit="10"/></g><g transform="translate(-102,-78) scale(1,1)"><g><path fill="none" stroke="none"/><text fill="#000000" stroke="none" font-family="나눔고딕" font-size="12px" font-style="normal" font-weight="bold" text-decoration="none" x="317.26526641845703" y="586.5">String</text></g></g><g transform="translate(-102,-78) scale(1,1)"><rect fill="#C0C0C0" stroke="none" x="407" y="575" width="28.59375" height="43" opacity="0.2"/></g><g transform="translate(-102,-78) scale(1,1)"><rect fill="#ffffff" stroke="none" x="400" y="568" width="28.59375" height="43"/></g><g transform="translate(-102,-78) scale(1,1)"><path fill="none" stroke="#000000" d="M 400 568 L 428.59375 568 L 428.59375 611 L 400 611 L 400 568 Z Z" stroke-miterlimit="10"/></g><g transform="translate(-102,-78) scale(1,1)"><path fill="none" stroke="#000000" d="M 400 592 L 428.59375 592" stroke-miterlimit="10"/></g><g transform="translate(-102,-78) scale(1,1)"><path fill="none" stroke="#000000" d="M 400 602 L 428.59375 602" stroke-miterlimit="10"/></g><g transform="translate(-102,-78) scale(1,1)"><g><path fill="none" stroke="none"/><text fill="#000000" stroke="none" font-family="나눔고딕" font-size="12px" font-style="normal" font-weight="bold" text-decoration="none" x="405.21888732910156" y="586.5">List</text></g></g><g transform="translate(-102,-78) scale(1,1)"><rect fill="#C0C0C0" stroke="none" x="487" y="575" width="67.39453125" height="43" opacity="0.2"/></g><g transform="translate(-102,-78) scale(1,1)"><rect fill="#ffffff" stroke="none" x="480" y="568" width="67.39453125" height="43"/></g><g transform="translate(-102,-78) scale(1,1)"><path fill="none" stroke="#000000" d="M 480 568 L 547.39453125 568 L 547.39453125 611 L 480 611 L 480 568 Z Z" stroke-miterlimit="10"/></g><g transform="translate(-102,-78) scale(1,1)"><path fill="none" stroke="#000000" d="M 480 592 L 547.39453125 592" stroke-miterlimit="10"/></g><g transform="translate(-102,-78) scale(1,1)"><path fill="none" stroke="#000000" d="M 480 602 L 547.39453125 602" stroke-miterlimit="10"/></g><g transform="translate(-102,-78) scale(1,1)"><g><path fill="none" stroke="none"/><text fill="#000000" stroke="none" font-family="나눔고딕" font-size="12px" font-style="normal" font-weight="bold" text-decoration="none" x="485.8453063964844" y="586.5">Dictionary</text></g></g><g transform="translate(-102,-78) scale(1,1)"><path fill="none" stroke="#000000" d="M 190 567 L 315 360" stroke-miterlimit="10"/></g><g transform="translate(-102,-78) scale(1,1)"><path fill="#FFFFFF" stroke="none" d="M 311.7002388790094 381.7511281671641 L 315 360 L 297.2863463095924 373.0470867605113"/></g><g transform="translate(-102,-78) scale(1,1)"><path fill="none" stroke="#000000" d="M 311.7002388790094 381.7511281671641 L 315 360 L 297.2863463095924 373.0470867605113 L 311.7002388790094 381.7511281671641" stroke-miterlimit="10"/></g><g transform="translate(-102,-78) scale(1,1)"><path fill="none" stroke="#000000" d="M 265 567 L 334 360" stroke-miterlimit="10"/></g><g transform="translate(-102,-78) scale(1,1)"><path fill="#FFFFFF" stroke="none" d="M 335.55955844199497 381.9446525938781 L 334 360 L 319.58556169007716 376.61998700990557"/></g><g transform="translate(-102,-78) scale(1,1)"><path fill="none" stroke="#000000" d="M 335.55955844199497 381.9446525938781 L 334 360 L 319.58556169007716 376.61998700990557 L 335.55955844199497 381.9446525938781" stroke-miterlimit="10"/></g><g transform="translate(-102,-78) scale(1,1)"><path fill="none" stroke="#000000" d="M 335 567 L 351 360" stroke-miterlimit="10"/></g><g transform="translate(-102,-78) scale(1,1)"><path fill="#FFFFFF" stroke="none" d="M 357.8276286348467 380.9137152898432 L 351 360 L 341.0396326058706 379.61609240837646"/></g><g transform="translate(-102,-78) scale(1,1)"><path fill="none" stroke="#000000" d="M 357.8276286348467 380.9137152898432 L 351 360 L 341.0396326058706 379.61609240837646 L 357.8276286348467 380.9137152898432" stroke-miterlimit="10"/></g><g transform="translate(-102,-78) scale(1,1)"><path fill="none" stroke="#000000" d="M 410 567 L 370 360" stroke-miterlimit="10"/></g><g transform="translate(-102,-78) scale(1,1)"><path fill="#FFFFFF" stroke="none" d="M 382.1223860231314 378.3588604522772 L 370 360 L 365.5901466404545 381.55349608178"/></g><g transform="translate(-102,-78) scale(1,1)"><path fill="none" stroke="#000000" d="M 382.1223860231314 378.3588604522772 L 370 360 L 365.5901466404545 381.55349608178 L 382.1223860231314 378.3588604522772" stroke-miterlimit="10"/></g><g transform="translate(-102,-78) scale(1,1)"><path fill="none" stroke="#000000" d="M 501 567 L 393 360" stroke-miterlimit="10"/></g><g transform="translate(-102,-78) scale(1,1)"><path fill="#FFFFFF" stroke="none" d="M 409.86600515675855 374.1257874135283 L 393 360 L 394.9376265481658 381.9145066875767"/></g><g transform="translate(-102,-78) scale(1,1)"><path fill="none" stroke="#000000" d="M 409.86600515675855 374.1257874135283 L 393 360 L 394.9376265481658 381.9145066875767 L 409.86600515675855 374.1257874135283" stroke-miterlimit="10"/></g><g transform="translate(-102,-78) scale(1,1)"><path fill="none" stroke="#000000" d="M 681 727 L 541 612" stroke-miterlimit="10"/></g><g transform="translate(-102,-78) scale(1,1)"><path fill="#FFFFFF" stroke="none" d="M 562.049825103534 618.3956909799199 L 541 612 L 551.3620376112247 631.4069105357747"/></g><g transform="translate(-102,-78) scale(1,1)"><path fill="none" stroke="#000000" d="M 562.049825103534 618.3956909799199 L 541 612 L 551.3620376112247 631.4069105357747 L 562.049825103534 618.3956909799199" stroke-miterlimit="10"/></g><g transform="translate(-102,-78) scale(1,1)"><rect fill="#C0C0C0" stroke="none" x="687" y="991" width="111.71986389160156" height="43" opacity="0.2"/></g><g transform="translate(-102,-78) scale(1,1)"><rect fill="#ffff91" stroke="none" x="680" y="984" width="111.71986389160156" height="43"/></g><g transform="translate(-102,-78) scale(1,1)"><path fill="none" stroke="#000000" d="M 680 984 L 791.7198638916016 984 L 791.7198638916016 1027 L 680 1027 L 680 984 Z Z" stroke-miterlimit="10"/></g><g transform="translate(-102,-78) scale(1,1)"><path fill="none" stroke="#000000" d="M 680 1008 L 791.7198638916016 1008" stroke-miterlimit="10"/></g><g transform="translate(-102,-78) scale(1,1)"><path fill="none" stroke="#000000" d="M 680 1018 L 791.7198638916016 1018" stroke-miterlimit="10"/></g><g transform="translate(-102,-78) scale(1,1)"><g><path fill="none" stroke="none"/><text fill="#000000" stroke="none" font-family="나눔고딕" font-size="12px" font-style="normal" font-weight="bold" text-decoration="none" x="684.5" y="1002.5">ValueModelObject</text></g></g><g transform="translate(-102,-78) scale(1,1)"><path fill="none" stroke="#000000" d="M 735 983 L 732 810" stroke-miterlimit="10"/></g><g transform="translate(-102,-78) scale(1,1)"><path fill="#FFFFFF" stroke="none" d="M 740.7701796752244 830.1763214799993 L 732 810 L 723.9346397826683 830.4682672584829"/></g><g transform="translate(-102,-78) scale(1,1)"><path fill="none" stroke="#000000" d="M 740.7701796752244 830.1763214799993 L 732 810 L 723.9346397826683 830.4682672584829 L 740.7701796752244 830.1763214799993" stroke-miterlimit="10"/></g><g transform="translate(-102,-78) scale(1,1)"><rect fill="#C0C0C0" stroke="none" x="191" y="727" width="365.69940185546875" height="69" opacity="0.2"/></g><g transform="translate(-102,-78) scale(1,1)"><rect fill="#ffffff" stroke="none" x="184" y="720" width="365.69940185546875" height="69"/></g><g transform="translate(-102,-78) scale(1,1)"><path fill="none" stroke="#000000" d="M 184 720 L 549.6994018554688 720 L 549.6994018554688 789 L 184 789 L 184 720 Z Z" stroke-miterlimit="10"/></g><g transform="translate(-102,-78) scale(1,1)"><path fill="none" stroke="#000000" d="M 184 744 L 549.6994018554688 744" stroke-miterlimit="10"/></g><g transform="translate(-102,-78) scale(1,1)"><path fill="none" stroke="#000000" d="M 184 754 L 549.6994018554688 754" stroke-miterlimit="10"/></g><g transform="translate(-102,-78) scale(1,1)"><g><path fill="none" stroke="none"/><text fill="#000000" stroke="none" font-family="나눔고딕" font-size="12px" font-style="normal" font-weight="bold" text-decoration="none" x="354.2437210083008" y="738.5">Type</text></g></g><g transform="translate(-102,-78) scale(1,1)"><g><path fill="none" stroke="none"/><text fill="#000000" stroke="none" font-family="나눔고딕" font-size="12px" font-style="normal" font-weight="normal" text-decoration="none" x="189" y="770.5">+__init__(Object: type&lt;DataTypeObject&gt;, patterns: list&lt;Pattern&gt;)</text></g></g><g transform="translate(-102,-78) scale(1,1)"><g><path fill="none" stroke="none"/><text fill="#000000" stroke="none" font-family="나눔고딕" font-size="12px" font-style="normal" font-weight="normal" text-decoration="none" x="189" y="784.5">+__call__(v)</text></g></g><g transform="translate(-102,-78) scale(1,1)"><rect fill="#C0C0C0" stroke="none" x="255" y="863" width="238.40370178222656" height="69" opacity="0.2"/></g><g transform="translate(-102,-78) scale(1,1)"><rect fill="#ffffff" stroke="none" x="248" y="856" width="238.40370178222656" height="69"/></g><g transform="translate(-102,-78) scale(1,1)"><path fill="none" stroke="#000000" d="M 248 856 L 486.40370178222656 856 L 486.40370178222656 925 L 248 925 L 248 856 Z Z" stroke-miterlimit="10"/></g><g transform="translate(-102,-78) scale(1,1)"><path fill="none" stroke="#000000" d="M 248 880 L 486.40370178222656 880" stroke-miterlimit="10"/></g><g transform="translate(-102,-78) scale(1,1)"><path fill="none" stroke="#000000" d="M 248 890 L 486.40370178222656 890" stroke-miterlimit="10"/></g><g transform="translate(-102,-78) scale(1,1)"><g><path fill="none" stroke="none"/><text fill="#000000" stroke="none" font-family="나눔고딕" font-size="12px" font-style="normal" font-weight="bold" text-decoration="none" x="349.3938751220703" y="874.5">Model</text></g></g><g transform="translate(-102,-78) scale(1,1)"><g><path fill="none" stroke="none"/><text fill="#000000" stroke="none" font-family="나눔고딕" font-size="12px" font-style="normal" font-weight="normal" text-decoration="none" x="253" y="906.5">+__init__(**kwargs)</text></g></g><g transform="translate(-102,-78) scale(1,1)"><g><path fill="none" stroke="none"/><text fill="#000000" stroke="none" font-family="나눔고딕" font-size="12px" font-style="normal" font-weight="normal" text-decoration="none" x="253" y="920.5">+__call__(Object: type&lt;DataTypeObject&gt;)</text></g></g><g transform="translate(-102,-78) scale(1,1)"><path fill="none" stroke="#000000" d="M 471 855 L 631 802" stroke-miterlimit="10"/></g><g transform="translate(-102,-78) scale(1,1)"><path fill="none" stroke="#000000" d="M 367 855 L 366 790" stroke-miterlimit="10"/></g><g transform="translate(-102,-78) scale(1,1)"><path fill="none" stroke="#000000" d="M 482 926 L 679 988" stroke-miterlimit="10"/></g><g transform="translate(-102,-78) scale(1,1)"><path fill="none" stroke="#000000" d="M 663 123 L 112 120 L 112 752 L 183 753" stroke-miterlimit="10"/></g></g></svg>