<svg version="1.1" xmlns="http://www.w3.org/2000/svg" xmlns:xlink="http://www.w3.org/1999/xlink" width="1538.6279296875" height="1378"><defs/><g><g transform="translate(-214,-30) scale(1,1)"><rect fill="#C0C0C0" stroke="none" x="879" y="759" width="320.873046875" height="44" opacity="0.2"/></g><g transform="translate(-214,-30) scale(1,1)"><rect fill="#ffff91" stroke="none" x="872" y="752" width="320.873046875" height="44"/></g><g transform="translate(-214,-30) scale(1,1)"><path fill="none" stroke="#000000" d="M 872 752 L 1192.873046875 752 L 1192.873046875 796 L 872 796 L 872 752 Z Z" stroke-miterlimit="10"/></g><g transform="translate(-214,-30) scale(1,1)"><path fill="none" stroke="#000000" d="M 872 777 L 1192.873046875 777" stroke-miterlimit="10"/></g><g transform="translate(-214,-30) scale(1,1)"><path fill="none" stroke="#000000" d="M 872 787 L 1192.873046875 787" stroke-miterlimit="10"/></g><g transform="translate(-214,-30) scale(1,1)"><g><path fill="none" stroke="none"/><text fill="#000000" stroke="none" font-family="Source Sans Pro" font-size="13px" font-style="normal" font-weight="bold" text-decoration="none" x="964.9731140136719" y="771.5">ValueAccessModelObject</text></g></g><g transform="translate(-214,-30) scale(1,1)"><rect fill="#C0C0C0" stroke="none" x="655" y="47" width="770.6044921875" height="357" opacity="0.2"/></g><g transform="translate(-214,-30) scale(1,1)"><rect fill="#ffffff" stroke="none" x="648" y="40" width="770.6044921875" height="357"/></g><g transform="translate(-214,-30) scale(1,1)"><path fill="none" stroke="#000000" d="M 648 40 L 1418.6044921875 40 L 1418.6044921875 397 L 648 397 L 648 40 Z Z" stroke-miterlimit="10"/></g><g transform="translate(-214,-30) scale(1,1)"><path fill="none" stroke="#000000" d="M 648 65 L 1418.6044921875 65" stroke-miterlimit="10"/></g><g transform="translate(-214,-30) scale(1,1)"><path fill="none" stroke="#000000" d="M 648 75 L 1418.6044921875 75" stroke-miterlimit="10"/></g><g transform="translate(-214,-30) scale(1,1)"><g><path fill="none" stroke="none"/><text fill="#000000" stroke="none" font-family="Source Sans Pro" font-size="13px" font-style="normal" font-weight="bold" text-decoration="none" x="949.8488464355469" y="59.5">DataAccessModelObjectHelper</text></g></g><g transform="translate(-214,-30) scale(1,1)"><g><path fill="none" stroke="none"/><text fill="#000000" stroke="none" font-family="Source Sans Pro" font-size="13px" font-style="normal" font-weight="normal" text-decoration="none" x="653" y="92.5">#onInit()</text></g></g><g transform="translate(-214,-30) scale(1,1)"><g><path fill="none" stroke="none"/><text fill="#000000" stroke="none" font-family="Source Sans Pro" font-size="13px" font-style="normal" font-weight="normal" text-decoration="none" x="653" y="107.5">+Initialize(connection: DataAccessObject, obj: type&lt;DataAccessModelObject&gt;, paramters: DataAccessModelObjectParameters)</text></g></g><g transform="translate(-214,-30) scale(1,1)"><g><path fill="none" stroke="none"/><text fill="#000000" stroke="none" font-family="Source Sans Pro" font-size="13px" font-style="normal" font-weight="normal" text-decoration="none" x="653" y="122.5">+UnInitialize(connection: DataAccessObject, obj: type&lt;DataAccessModelObject&gt;, parameters: DataAccessModelObjectParamters)</text></g></g><g transform="translate(-214,-30) scale(1,1)"><g><path fill="none" stroke="none"/><text fill="#000000" stroke="none" font-family="Source Sans Pro" font-size="13px" font-style="normal" font-weight="normal" text-decoration="none" x="653" y="137.5">+Create(connection: DataAccessObject, obj: type&lt;DataAccessModelObject&gt;, parameters: DataAccessModelObjectParamters)</text></g></g><g transform="translate(-214,-30) scale(1,1)"><g><path fill="none" stroke="none"/><text fill="#000000" stroke="none" font-family="Source Sans Pro" font-size="13px" font-style="normal" font-weight="normal" text-decoration="none" x="653" y="152.5">+Read(connection: DataAccessObject, obj: type&lt;DataAccessModelObject&gt;, parameters: DataAccessModelObjectParamters)</text></g></g><g transform="translate(-214,-30) scale(1,1)"><g><path fill="none" stroke="none"/><text fill="#000000" stroke="none" font-family="Source Sans Pro" font-size="13px" font-style="normal" font-weight="normal" text-decoration="none" x="653" y="167.5">+Update(connection: DataAccessObject, obj: type&lt;DataAccessModelObject&gt;, parameters: DataAccessModelObjectParamters)</text></g></g><g transform="translate(-214,-30) scale(1,1)"><g><path fill="none" stroke="none"/><text fill="#000000" stroke="none" font-family="Source Sans Pro" font-size="13px" font-style="normal" font-weight="normal" text-decoration="none" x="653" y="182.5">+Delete(connection: DataAccessObject, obj: type&lt;DataAccessModelObject&gt;, parameters: DataAccessModelObjectParamters)</text></g></g><g transform="translate(-214,-30) scale(1,1)"><g><path fill="none" stroke="none"/><text fill="#000000" stroke="none" font-family="Source Sans Pro" font-size="13px" font-style="normal" font-weight="normal" text-decoration="none" x="653" y="197.5">+Get(connection: DataAccessObject, obj: type&lt;DataAccessModelObject&gt;, parameters: DataAccessModelObjectParamters)</text></g></g><g transform="translate(-214,-30) scale(1,1)"><g><path fill="none" stroke="none"/><text fill="#000000" stroke="none" font-family="Source Sans Pro" font-size="13px" font-style="normal" font-weight="normal" text-decoration="none" x="653" y="212.5">+Set(connection: DataAccessObject, obj: type&lt;DataAccessModelObject&gt;, parameters: DataAccessModelObjectParamters)</text></g></g><g transform="translate(-214,-30) scale(1,1)"><g><path fill="none" stroke="none"/><text fill="#000000" stroke="none" font-family="Source Sans Pro" font-size="13px" font-style="normal" font-weight="normal" text-decoration="none" x="653" y="227.5">+Command(connection: DataAccessObject, obj: type&lt;DataAccessModelObject&gt;, parameters: DataAccessModelObjectParamters)</text></g></g><g transform="translate(-214,-30) scale(1,1)"><g><path fill="none" stroke="none"/><text fill="#000000" stroke="none" font-family="Source Sans Pro" font-size="13px" font-style="normal" font-weight="normal" text-decoration="none" x="653" y="242.5">+Query(connection: DataAccessObject, obj: type&lt;DataAccessModelObject&gt;, parameters: DataAccessModelObjectParamters)</text></g></g><g transform="translate(-214,-30) scale(1,1)"><g><path fill="none" stroke="none"/><text fill="#000000" stroke="none" font-family="Source Sans Pro" font-size="13px" font-style="normal" font-weight="normal" text-decoration="none" x="653" y="257.5">-initialize(connection: DataAccessObject, obj: type&lt;DataAccessModelObject&gt;, parameters: DataAccessModelObjectParamters)</text></g></g><g transform="translate(-214,-30) scale(1,1)"><g><path fill="none" stroke="none"/><text fill="#000000" stroke="none" font-family="Source Sans Pro" font-size="13px" font-style="normal" font-weight="normal" text-decoration="none" x="653" y="272.5">-uninitialize(connection: DataAccessObject, obj: type&lt;DataAccessModelObject&gt;, parameters: DataAccessModelObjectParamters)</text></g></g><g transform="translate(-214,-30) scale(1,1)"><g><path fill="none" stroke="none"/><text fill="#000000" stroke="none" font-family="Source Sans Pro" font-size="13px" font-style="normal" font-weight="normal" text-decoration="none" x="653" y="287.5">-create(connection: DataAccessObject, obj: type&lt;DataAccessModelObject&gt;, parameters: DataAccessModelObjectParamters)</text></g></g><g transform="translate(-214,-30) scale(1,1)"><g><path fill="none" stroke="none"/><text fill="#000000" stroke="none" font-family="Source Sans Pro" font-size="13px" font-style="normal" font-weight="normal" text-decoration="none" x="653" y="302.5">-read(connection: DataAccessObject, obj: type&lt;DataAccessModelObject&gt;, parameters: DataAccessModelObjectParamters)</text></g></g><g transform="translate(-214,-30) scale(1,1)"><g><path fill="none" stroke="none"/><text fill="#000000" stroke="none" font-family="Source Sans Pro" font-size="13px" font-style="normal" font-weight="normal" text-decoration="none" x="653" y="317.5">-update(connection: DataAccessObject, obj: type&lt;DataAccessModelObject&gt;, parameters: DataAccessModelObjectParamters)</text></g></g><g transform="translate(-214,-30) scale(1,1)"><g><path fill="none" stroke="none"/><text fill="#000000" stroke="none" font-family="Source Sans Pro" font-size="13px" font-style="normal" font-weight="normal" text-decoration="none" x="653" y="332.5">-delete(connection: DataAccessObject, obj: type&lt;DataAccessModelObject&gt;, parameters: DataAccessModelObjectParamters)</text></g></g><g transform="translate(-214,-30) scale(1,1)"><g><path fill="none" stroke="none"/><text fill="#000000" stroke="none" font-family="Source Sans Pro" font-size="13px" font-style="normal" font-weight="normal" text-decoration="none" x="653" y="347.5">-get(connection: DataAccessObject, obj: type&lt;DataAccessModelObject&gt;, parameters: DataAccessModelObjectParamters)</text></g></g><g transform="translate(-214,-30) scale(1,1)"><g><path fill="none" stroke="none"/><text fill="#000000" stroke="none" font-family="Source Sans Pro" font-size="13px" font-style="normal" font-weight="normal" text-decoration="none" x="653" y="362.5">-set(connection: DataAccessObject, obj: type&lt;DataAccessModelObject&gt;, parameters: DataAccessModelObjectParamters)</text></g></g><g transform="translate(-214,-30) scale(1,1)"><g><path fill="none" stroke="none"/><text fill="#000000" stroke="none" font-family="Source Sans Pro" font-size="13px" font-style="normal" font-weight="normal" text-decoration="none" x="653" y="377.5">-command(connection: DataAccessObject, obj: type&lt;DataAccessModelObject&gt;, parameters: DataAccessModelObjectParamters)</text></g></g><g transform="translate(-214,-30) scale(1,1)"><g><path fill="none" stroke="none"/><text fill="#000000" stroke="none" font-family="Source Sans Pro" font-size="13px" font-style="normal" font-weight="normal" text-decoration="none" x="653" y="392.5">-query(connection: DataAccessObject, obj: type&lt;DataAccessModelObject&gt;, parameters: DataAccessModelObjectParamters)</text></g></g><g transform="translate(-214,-30) scale(1,1)"><rect fill="#C0C0C0" stroke="none" x="231" y="159" width="224.87744140625" height="115" opacity="0.2"/></g><g transform="translate(-214,-30) scale(1,1)"><rect fill="#ffffff" stroke="none" x="224" y="152" width="224.87744140625" height="115"/></g><g transform="translate(-214,-30) scale(1,1)"><path fill="none" stroke="#000000" d="M 224 152 L 448.87744140625 152 L 448.87744140625 267 L 224 267 L 224 152 Z Z" stroke-miterlimit="10"/></g><g transform="translate(-214,-30) scale(1,1)"><path fill="none" stroke="#000000" d="M 224 205 L 448.87744140625 205" stroke-miterlimit="10"/></g><g transform="translate(-214,-30) scale(1,1)"><path fill="none" stroke="#000000" d="M 224 215 L 448.87744140625 215" stroke-miterlimit="10"/></g><g transform="translate(-214,-30) scale(1,1)"><g><path fill="none" stroke="none"/><text fill="#000000" stroke="none" font-family="Source Sans Pro" font-size="13px" font-style="normal" font-weight="normal" text-decoration="none" x="308.4237594604492" y="169.5">«abstract»</text></g></g><g transform="translate(-214,-30) scale(1,1)"><g><path fill="none" stroke="none"/><text fill="#000000" stroke="none" font-family="Source Sans Pro" font-size="13px" font-style="normal" font-weight="bold" text-decoration="none" x="310.53626251220703" y="184.5">Singleton</text></g></g><g transform="translate(-214,-30) scale(1,1)"><g><path fill="none" stroke="none"/><text fill="#000000" stroke="none" font-family="Source Sans Pro" font-size="13px" font-style="normal" font-weight="normal" text-decoration="none" x="260.2913284301758" y="199.5">(from Desgin Pattern Model)</text></g></g><g transform="translate(-214,-30) scale(1,1)"><g><path fill="none" stroke="none"/><text fill="#000000" stroke="none" font-family="Source Sans Pro" font-size="13px" font-style="normal" font-weight="normal" text-decoration="none" x="229" y="232.5">-GetInstance(*args, **kwargs): object</text></g></g><g transform="translate(-214,-30) scale(1,1)"><g><path fill="none" stroke="none"/><text fill="#000000" stroke="none" font-family="Source Sans Pro" font-size="13px" font-style="normal" font-weight="normal" text-decoration="none" x="229" y="247.5">+__new__(*args, **kwargs): object</text></g></g><g transform="translate(-214,-30) scale(1,1)"><g><path fill="none" stroke="none"/><text fill="#000000" stroke="none" font-family="Source Sans Pro" font-size="13px" font-style="normal" font-weight="normal" text-decoration="none" x="229" y="262.5">«abstract»#onInit(): void</text></g></g><g transform="translate(-214,-30) scale(1,1)"><path fill="none" stroke="#000000" d="M 647 213 L 450 210" stroke-miterlimit="10"/></g><g transform="translate(-214,-30) scale(1,1)"><path fill="#FFFFFF" stroke="none" d="M 470.4511871493588 201.89142773468092 L 450 210 L 470.1947995511751 218.7275466820785"/></g><g transform="translate(-214,-30) scale(1,1)"><path fill="none" stroke="#000000" d="M 470.4511871493588 201.89142773468092 L 450 210 L 470.1947995511751 218.7275466820785 L 470.4511871493588 201.89142773468092" stroke-miterlimit="10"/></g><g transform="translate(-214,-30) scale(1,1)"><rect fill="#C0C0C0" stroke="none" x="263" y="751" width="191.5966796875" height="70" opacity="0.2"/></g><g transform="translate(-214,-30) scale(1,1)"><rect fill="#ffffff" stroke="none" x="256" y="744" width="191.5966796875" height="70"/></g><g transform="translate(-214,-30) scale(1,1)"><path fill="none" stroke="#000000" d="M 256 744 L 447.5966796875 744 L 447.5966796875 814 L 256 814 L 256 744 Z Z" stroke-miterlimit="10"/></g><g transform="translate(-214,-30) scale(1,1)"><path fill="none" stroke="#000000" d="M 256 782 L 447.5966796875 782" stroke-miterlimit="10"/></g><g transform="translate(-214,-30) scale(1,1)"><path fill="none" stroke="#000000" d="M 256 792 L 447.5966796875 792" stroke-miterlimit="10"/></g><g transform="translate(-214,-30) scale(1,1)"><g><path fill="none" stroke="none"/><text fill="#000000" stroke="none" font-family="Source Sans Pro" font-size="13px" font-style="normal" font-weight="normal" text-decoration="none" x="322.3078842163086" y="761.5">«interface»</text></g></g><g transform="translate(-214,-30) scale(1,1)"><g><path fill="none" stroke="none"/><text fill="#000000" stroke="none" font-family="Source Sans Pro" font-size="13px" font-style="normal" font-weight="bold" text-decoration="none" x="320.12388610839844" y="776.5">Initializable</text></g></g><g transform="translate(-214,-30) scale(1,1)"><g><path fill="none" stroke="none"/><text fill="#000000" stroke="none" font-family="Source Sans Pro" font-size="13px" font-style="normal" font-weight="normal" text-decoration="none" x="261" y="809.5">+initialize(*args, **kwargs): any</text></g></g><g transform="translate(-214,-30) scale(1,1)"><rect fill="#C0C0C0" stroke="none" x="1543" y="743" width="206.6279296875" height="70" opacity="0.2"/></g><g transform="translate(-214,-30) scale(1,1)"><rect fill="#ffffff" stroke="none" x="1536" y="736" width="206.6279296875" height="70"/></g><g transform="translate(-214,-30) scale(1,1)"><path fill="none" stroke="#000000" d="M 1536 736 L 1742.6279296875 736 L 1742.6279296875 806 L 1536 806 L 1536 736 Z Z" stroke-miterlimit="10"/></g><g transform="translate(-214,-30) scale(1,1)"><path fill="none" stroke="#000000" d="M 1536 774 L 1742.6279296875 774" stroke-miterlimit="10"/></g><g transform="translate(-214,-30) scale(1,1)"><path fill="none" stroke="#000000" d="M 1536 784 L 1742.6279296875 784" stroke-miterlimit="10"/></g><g transform="translate(-214,-30) scale(1,1)"><g><path fill="none" stroke="none"/><text fill="#000000" stroke="none" font-family="Source Sans Pro" font-size="13px" font-style="normal" font-weight="normal" text-decoration="none" x="1609.8235092163086" y="753.5">«interface»</text></g></g><g transform="translate(-214,-30) scale(1,1)"><g><path fill="none" stroke="none"/><text fill="#000000" stroke="none" font-family="Source Sans Pro" font-size="13px" font-style="normal" font-weight="bold" text-decoration="none" x="1599.8915176391602" y="768.5">UnInitializable</text></g></g><g transform="translate(-214,-30) scale(1,1)"><g><path fill="none" stroke="none"/><text fill="#000000" stroke="none" font-family="Source Sans Pro" font-size="13px" font-style="normal" font-weight="normal" text-decoration="none" x="1541" y="801.5">+uninitialize(*args, **kwargs): any</text></g></g><g transform="translate(-214,-30) scale(1,1)"><rect fill="#C0C0C0" stroke="none" x="647" y="1335" width="179.77734375" height="70" opacity="0.2"/></g><g transform="translate(-214,-30) scale(1,1)"><rect fill="#ffffff" stroke="none" x="640" y="1328" width="179.77734375" height="70"/></g><g transform="translate(-214,-30) scale(1,1)"><path fill="none" stroke="#000000" d="M 640 1328 L 819.77734375 1328 L 819.77734375 1398 L 640 1398 L 640 1328 Z Z" stroke-miterlimit="10"/></g><g transform="translate(-214,-30) scale(1,1)"><path fill="none" stroke="#000000" d="M 640 1366 L 819.77734375 1366" stroke-miterlimit="10"/></g><g transform="translate(-214,-30) scale(1,1)"><path fill="none" stroke="#000000" d="M 640 1376 L 819.77734375 1376" stroke-miterlimit="10"/></g><g transform="translate(-214,-30) scale(1,1)"><g><path fill="none" stroke="none"/><text fill="#000000" stroke="none" font-family="Source Sans Pro" font-size="13px" font-style="normal" font-weight="normal" text-decoration="none" x="700.3982162475586" y="1345.5">«interface»</text></g></g><g transform="translate(-214,-30) scale(1,1)"><g><path fill="none" stroke="none"/><text fill="#000000" stroke="none" font-family="Source Sans Pro" font-size="13px" font-style="normal" font-weight="bold" text-decoration="none" x="703.6287155151367" y="1360.5">Creatable</text></g></g><g transform="translate(-214,-30) scale(1,1)"><g><path fill="none" stroke="none"/><text fill="#000000" stroke="none" font-family="Source Sans Pro" font-size="13px" font-style="normal" font-weight="normal" text-decoration="none" x="645" y="1393.5">+create(*args, **kwargs): any</text></g></g><g transform="translate(-214,-30) scale(1,1)"><rect fill="#C0C0C0" stroke="none" x="839" y="1335" width="170.02099609375" height="70" opacity="0.2"/></g><g transform="translate(-214,-30) scale(1,1)"><rect fill="#ffffff" stroke="none" x="832" y="1328" width="170.02099609375" height="70"/></g><g transform="translate(-214,-30) scale(1,1)"><path fill="none" stroke="#000000" d="M 832 1328 L 1002.02099609375 1328 L 1002.02099609375 1398 L 832 1398 L 832 1328 Z Z" stroke-miterlimit="10"/></g><g transform="translate(-214,-30) scale(1,1)"><path fill="none" stroke="#000000" d="M 832 1366 L 1002.02099609375 1366" stroke-miterlimit="10"/></g><g transform="translate(-214,-30) scale(1,1)"><path fill="none" stroke="#000000" d="M 832 1376 L 1002.02099609375 1376" stroke-miterlimit="10"/></g><g transform="translate(-214,-30) scale(1,1)"><g><path fill="none" stroke="none"/><text fill="#000000" stroke="none" font-family="Source Sans Pro" font-size="13px" font-style="normal" font-weight="normal" text-decoration="none" x="887.5200424194336" y="1345.5">«interface»</text></g></g><g transform="translate(-214,-30) scale(1,1)"><g><path fill="none" stroke="none"/><text fill="#000000" stroke="none" font-family="Source Sans Pro" font-size="13px" font-style="normal" font-weight="bold" text-decoration="none" x="891.4135284423828" y="1360.5">Readable</text></g></g><g transform="translate(-214,-30) scale(1,1)"><g><path fill="none" stroke="none"/><text fill="#000000" stroke="none" font-family="Source Sans Pro" font-size="13px" font-style="normal" font-weight="normal" text-decoration="none" x="837" y="1393.5">+read(*args, **kwargs): any</text></g></g><g transform="translate(-214,-30) scale(1,1)"><rect fill="#C0C0C0" stroke="none" x="1023" y="1335" width="185.22998046875" height="70" opacity="0.2"/></g><g transform="translate(-214,-30) scale(1,1)"><rect fill="#ffffff" stroke="none" x="1016" y="1328" width="185.22998046875" height="70"/></g><g transform="translate(-214,-30) scale(1,1)"><path fill="none" stroke="#000000" d="M 1016 1328 L 1201.22998046875 1328 L 1201.22998046875 1398 L 1016 1398 L 1016 1328 Z Z" stroke-miterlimit="10"/></g><g transform="translate(-214,-30) scale(1,1)"><path fill="none" stroke="#000000" d="M 1016 1366 L 1201.22998046875 1366" stroke-miterlimit="10"/></g><g transform="translate(-214,-30) scale(1,1)"><path fill="none" stroke="#000000" d="M 1016 1376 L 1201.22998046875 1376" stroke-miterlimit="10"/></g><g transform="translate(-214,-30) scale(1,1)"><g><path fill="none" stroke="none"/><text fill="#000000" stroke="none" font-family="Source Sans Pro" font-size="13px" font-style="normal" font-weight="normal" text-decoration="none" x="1079.1245346069336" y="1345.5">«interface»</text></g></g><g transform="translate(-214,-30) scale(1,1)"><g><path fill="none" stroke="none"/><text fill="#000000" stroke="none" font-family="Source Sans Pro" font-size="13px" font-style="normal" font-weight="bold" text-decoration="none" x="1079.982521057129" y="1360.5">Updatable</text></g></g><g transform="translate(-214,-30) scale(1,1)"><g><path fill="none" stroke="none"/><text fill="#000000" stroke="none" font-family="Source Sans Pro" font-size="13px" font-style="normal" font-weight="normal" text-decoration="none" x="1021" y="1393.5">+update(*args, **kwargs): any</text></g></g><g transform="translate(-214,-30) scale(1,1)"><rect fill="#C0C0C0" stroke="none" x="1223" y="1335" width="180.259765625" height="70" opacity="0.2"/></g><g transform="translate(-214,-30) scale(1,1)"><rect fill="#ffffff" stroke="none" x="1216" y="1328" width="180.259765625" height="70"/></g><g transform="translate(-214,-30) scale(1,1)"><path fill="none" stroke="#000000" d="M 1216 1328 L 1396.259765625 1328 L 1396.259765625 1398 L 1216 1398 L 1216 1328 Z Z" stroke-miterlimit="10"/></g><g transform="translate(-214,-30) scale(1,1)"><path fill="none" stroke="#000000" d="M 1216 1366 L 1396.259765625 1366" stroke-miterlimit="10"/></g><g transform="translate(-214,-30) scale(1,1)"><path fill="none" stroke="#000000" d="M 1216 1376 L 1396.259765625 1376" stroke-miterlimit="10"/></g><g transform="translate(-214,-30) scale(1,1)"><g><path fill="none" stroke="none"/><text fill="#000000" stroke="none" font-family="Source Sans Pro" font-size="13px" font-style="normal" font-weight="normal" text-decoration="none" x="1276.6394271850586" y="1345.5">«interface»</text></g></g><g transform="translate(-214,-30) scale(1,1)"><g><path fill="none" stroke="none"/><text fill="#000000" stroke="none" font-family="Source Sans Pro" font-size="13px" font-style="normal" font-weight="bold" text-decoration="none" x="1276.892921447754" y="1360.5">Deleatable</text></g></g><g transform="translate(-214,-30) scale(1,1)"><g><path fill="none" stroke="none"/><text fill="#000000" stroke="none" font-family="Source Sans Pro" font-size="13px" font-style="normal" font-weight="normal" text-decoration="none" x="1221" y="1393.5">+delete(*args, **kwargs): any</text></g></g><g transform="translate(-214,-30) scale(1,1)"><rect fill="#C0C0C0" stroke="none" x="271" y="959" width="163.146484375" height="70" opacity="0.2"/></g><g transform="translate(-214,-30) scale(1,1)"><rect fill="#ffffff" stroke="none" x="264" y="952" width="163.146484375" height="70"/></g><g transform="translate(-214,-30) scale(1,1)"><path fill="none" stroke="#000000" d="M 264 952 L 427.146484375 952 L 427.146484375 1022 L 264 1022 L 264 952 Z Z" stroke-miterlimit="10"/></g><g transform="translate(-214,-30) scale(1,1)"><path fill="none" stroke="#000000" d="M 264 990 L 427.146484375 990" stroke-miterlimit="10"/></g><g transform="translate(-214,-30) scale(1,1)"><path fill="none" stroke="#000000" d="M 264 1000 L 427.146484375 1000" stroke-miterlimit="10"/></g><g transform="translate(-214,-30) scale(1,1)"><g><path fill="none" stroke="none"/><text fill="#000000" stroke="none" font-family="Source Sans Pro" font-size="13px" font-style="normal" font-weight="normal" text-decoration="none" x="316.0827865600586" y="969.5">«interface»</text></g></g><g transform="translate(-214,-30) scale(1,1)"><g><path fill="none" stroke="none"/><text fill="#000000" stroke="none" font-family="Source Sans Pro" font-size="13px" font-style="normal" font-weight="bold" text-decoration="none" x="322.3357696533203" y="984.5">Gettable</text></g></g><g transform="translate(-214,-30) scale(1,1)"><g><path fill="none" stroke="none"/><text fill="#000000" stroke="none" font-family="Source Sans Pro" font-size="13px" font-style="normal" font-weight="normal" text-decoration="none" x="269" y="1017.5">+get(*args, **kwargs): any</text></g></g><g transform="translate(-214,-30) scale(1,1)"><rect fill="#C0C0C0" stroke="none" x="271" y="1063" width="160.9501953125" height="70" opacity="0.2"/></g><g transform="translate(-214,-30) scale(1,1)"><rect fill="#ffffff" stroke="none" x="264" y="1056" width="160.9501953125" height="70"/></g><g transform="translate(-214,-30) scale(1,1)"><path fill="none" stroke="#000000" d="M 264 1056 L 424.9501953125 1056 L 424.9501953125 1126 L 264 1126 L 264 1056 Z Z" stroke-miterlimit="10"/></g><g transform="translate(-214,-30) scale(1,1)"><path fill="none" stroke="#000000" d="M 264 1094 L 424.9501953125 1094" stroke-miterlimit="10"/></g><g transform="translate(-214,-30) scale(1,1)"><path fill="none" stroke="#000000" d="M 264 1104 L 424.9501953125 1104" stroke-miterlimit="10"/></g><g transform="translate(-214,-30) scale(1,1)"><g><path fill="none" stroke="none"/><text fill="#000000" stroke="none" font-family="Source Sans Pro" font-size="13px" font-style="normal" font-weight="normal" text-decoration="none" x="314.9846420288086" y="1073.5">«interface»</text></g></g><g transform="translate(-214,-30) scale(1,1)"><g><path fill="none" stroke="none"/><text fill="#000000" stroke="none" font-family="Source Sans Pro" font-size="13px" font-style="normal" font-weight="bold" text-decoration="none" x="321.7771301269531" y="1088.5">Settable</text></g></g><g transform="translate(-214,-30) scale(1,1)"><g><path fill="none" stroke="none"/><text fill="#000000" stroke="none" font-family="Source Sans Pro" font-size="13px" font-style="normal" font-weight="normal" text-decoration="none" x="269" y="1121.5">+set(*args, **kwargs): any</text></g></g><g transform="translate(-214,-30) scale(1,1)"><path fill="none" stroke="#000000" d="M 871 775 L 449 778" stroke-miterlimit="10" stroke-dasharray="3"/></g><g transform="translate(-214,-30) scale(1,1)"><path fill="#FFFFFF" stroke="none" d="M 469.2649866829368 769.4366878638932 L 449 778 L 469.3846855850179 786.2743334233015"/></g><g transform="translate(-214,-30) scale(1,1)"><path fill="none" stroke="#000000" d="M 469.2649866829368 769.4366878638932 L 449 778 L 469.3846855850179 786.2743334233015 L 469.2649866829368 769.4366878638932" stroke-miterlimit="10"/></g><g transform="translate(-214,-30) scale(1,1)"><path fill="none" stroke="#000000" d="M 1020 797 L 748 1327" stroke-miterlimit="10" stroke-dasharray="3"/></g><g transform="translate(-214,-30) scale(1,1)"><path fill="#FFFFFF" stroke="none" d="M 749.7901090690447 1305.0729502777751 L 748 1327 L 764.7705638117849 1312.7610327117852"/></g><g transform="translate(-214,-30) scale(1,1)"><path fill="none" stroke="#000000" d="M 749.7901090690447 1305.0729502777751 L 748 1327 L 764.7705638117849 1312.7610327117852 L 749.7901090690447 1305.0729502777751" stroke-miterlimit="10"/></g><g transform="translate(-214,-30) scale(1,1)"><path fill="none" stroke="#000000" d="M 1028 797 L 924 1327" stroke-miterlimit="10" stroke-dasharray="3"/></g><g transform="translate(-214,-30) scale(1,1)"><path fill="#FFFFFF" stroke="none" d="M 919.652249043027 1305.433890902248 L 924 1327 L 936.1752178022434 1308.6761338285849"/></g><g transform="translate(-214,-30) scale(1,1)"><path fill="none" stroke="#000000" d="M 919.652249043027 1305.433890902248 L 924 1327 L 936.1752178022434 1308.6761338285849 L 919.652249043027 1305.433890902248" stroke-miterlimit="10"/></g><g transform="translate(-214,-30) scale(1,1)"><path fill="none" stroke="#000000" d="M 1035 797 L 1103 1327" stroke-miterlimit="10" stroke-dasharray="3"/></g><g transform="translate(-214,-30) scale(1,1)"><path fill="#FFFFFF" stroke="none" d="M 1092.0628366919095 1307.9113002335894 L 1103 1327 L 1108.7640067067675 1305.7685086090416"/></g><g transform="translate(-214,-30) scale(1,1)"><path fill="none" stroke="#000000" d="M 1092.0628366919095 1307.9113002335894 L 1103 1327 L 1108.7640067067675 1305.7685086090416 L 1092.0628366919095 1307.9113002335894" stroke-miterlimit="10"/></g><g transform="translate(-214,-30) scale(1,1)"><path fill="none" stroke="#000000" d="M 1043 797 L 1289 1327" stroke-miterlimit="10" stroke-dasharray="3"/></g><g transform="translate(-214,-30) scale(1,1)"><path fill="#FFFFFF" stroke="none" d="M 1272.806275768195 1312.1082809755135 L 1289 1327 L 1288.079343288765 1305.0192722772867"/></g><g transform="translate(-214,-30) scale(1,1)"><path fill="none" stroke="#000000" d="M 1272.806275768195 1312.1082809755135 L 1289 1327 L 1288.079343288765 1305.0192722772867 L 1272.806275768195 1312.1082809755135" stroke-miterlimit="10"/></g><g transform="translate(-214,-30) scale(1,1)"><path fill="none" stroke="#000000" d="M 958 797 L 428 961" stroke-miterlimit="10" stroke-dasharray="3"/></g><g transform="translate(-214,-30) scale(1,1)"><path fill="#FFFFFF" stroke="none" d="M 444.928300161322 946.9489269574105 L 428 961 L 449.90572486939465 963.0345068066696"/></g><g transform="translate(-214,-30) scale(1,1)"><path fill="none" stroke="#000000" d="M 444.928300161322 946.9489269574105 L 428 961 L 449.90572486939465 963.0345068066696 L 444.928300161322 946.9489269574105" stroke-miterlimit="10"/></g><g transform="translate(-214,-30) scale(1,1)"><path fill="none" stroke="#000000" d="M 982 797 L 422 1055" stroke-miterlimit="10" stroke-dasharray="3"/></g><g transform="translate(-214,-30) scale(1,1)"><path fill="#FFFFFF" stroke="none" d="M 436.9375072435855 1038.8485023187375 L 422 1055 L 443.98324620270205 1054.141579129223"/></g><g transform="translate(-214,-30) scale(1,1)"><path fill="none" stroke="#000000" d="M 436.9375072435855 1038.8485023187375 L 422 1055 L 443.98324620270205 1054.141579129223 L 436.9375072435855 1038.8485023187375" stroke-miterlimit="10"/></g><g transform="translate(-214,-30) scale(1,1)"><path fill="none" stroke="#000000" d="M 1194 773 L 1535 772" stroke-miterlimit="10" stroke-dasharray="3"/></g><g transform="translate(-214,-30) scale(1,1)"><path fill="#FFFFFF" stroke="none" d="M 1514.6994268292806 780.4786041858473 L 1535 772 L 1514.6500485342012 763.6406055638199"/></g><g transform="translate(-214,-30) scale(1,1)"><path fill="none" stroke="#000000" d="M 1514.6994268292806 780.4786041858473 L 1535 772 L 1514.6500485342012 763.6406055638199 L 1514.6994268292806 780.4786041858473" stroke-miterlimit="10"/></g><g transform="translate(-214,-30) scale(1,1)"><rect fill="#C0C0C0" stroke="none" x="1543" y="935" width="202.7939453125" height="72" opacity="0.2"/></g><g transform="translate(-214,-30) scale(1,1)"><rect fill="#ffffff" stroke="none" x="1536" y="928" width="202.7939453125" height="72"/></g><g transform="translate(-214,-30) scale(1,1)"><path fill="none" stroke="#000000" d="M 1536 928 L 1738.7939453125 928 L 1738.7939453125 1000 L 1536 1000 L 1536 928 Z Z" stroke-miterlimit="10"/></g><g transform="translate(-214,-30) scale(1,1)"><path fill="none" stroke="#000000" d="M 1536 966 L 1738.7939453125 966" stroke-miterlimit="10"/></g><g transform="translate(-214,-30) scale(1,1)"><path fill="none" stroke="#000000" d="M 1536 976 L 1738.7939453125 976" stroke-miterlimit="10"/></g><g transform="translate(-214,-30) scale(1,1)"><g><path fill="none" stroke="none"/><text fill="#000000" stroke="none" font-family="Source Sans Pro" font-size="13px" font-style="normal" font-weight="normal" text-decoration="none" x="1607.9065170288086" y="945.5">«interface»</text></g></g><g transform="translate(-214,-30) scale(1,1)"><g><path fill="none" stroke="none"/><text fill="#000000" stroke="none" font-family="Source Sans Pro" font-size="13px" font-style="normal" font-weight="bold" text-decoration="none" x="1597.0775146484375" y="960.5">Commandable</text></g></g><g transform="translate(-214,-30) scale(1,1)"><g><path fill="none" stroke="none"/><text fill="#000000" stroke="none" font-family="Source Sans Pro" font-size="13px" font-style="normal" font-weight="normal" text-decoration="none" x="1541" y="993.5">+command(*args, **kwargs): any</text></g></g><g transform="translate(-214,-30) scale(1,1)"><rect fill="#C0C0C0" stroke="none" x="1559" y="1039" width="179.4091796875" height="70" opacity="0.2"/></g><g transform="translate(-214,-30) scale(1,1)"><rect fill="#ffffff" stroke="none" x="1552" y="1032" width="179.4091796875" height="70"/></g><g transform="translate(-214,-30) scale(1,1)"><path fill="none" stroke="#000000" d="M 1552 1032 L 1731.4091796875 1032 L 1731.4091796875 1102 L 1552 1102 L 1552 1032 Z Z" stroke-miterlimit="10"/></g><g transform="translate(-214,-30) scale(1,1)"><path fill="none" stroke="#000000" d="M 1552 1070 L 1731.4091796875 1070" stroke-miterlimit="10"/></g><g transform="translate(-214,-30) scale(1,1)"><path fill="none" stroke="#000000" d="M 1552 1080 L 1731.4091796875 1080" stroke-miterlimit="10"/></g><g transform="translate(-214,-30) scale(1,1)"><g><path fill="none" stroke="none"/><text fill="#000000" stroke="none" font-family="Source Sans Pro" font-size="13px" font-style="normal" font-weight="normal" text-decoration="none" x="1612.2141342163086" y="1049.5">«interface»</text></g></g><g transform="translate(-214,-30) scale(1,1)"><g><path fill="none" stroke="none"/><text fill="#000000" stroke="none" font-family="Source Sans Pro" font-size="13px" font-style="normal" font-weight="bold" text-decoration="none" x="1613.5271301269531" y="1064.5">Queryable</text></g></g><g transform="translate(-214,-30) scale(1,1)"><g><path fill="none" stroke="none"/><text fill="#000000" stroke="none" font-family="Source Sans Pro" font-size="13px" font-style="normal" font-weight="normal" text-decoration="none" x="1557" y="1097.5">+Query(*args, **kwargs): any</text></g></g><g transform="translate(-214,-30) scale(1,1)"><path fill="none" stroke="#000000" d="M 1105 797 L 1535 932" stroke-miterlimit="10" stroke-dasharray="3"/></g><g transform="translate(-214,-30) scale(1,1)"><path fill="#FFFFFF" stroke="none" d="M 1513.0860802310235 933.9442531622351 L 1535 932 L 1518.129724133619 917.8793133243387"/></g><g transform="translate(-214,-30) scale(1,1)"><path fill="none" stroke="#000000" d="M 1513.0860802310235 933.9442531622351 L 1535 932 L 1518.129724133619 917.8793133243387 L 1513.0860802310235 933.9442531622351" stroke-miterlimit="10"/></g><g transform="translate(-214,-30) scale(1,1)"><path fill="none" stroke="#000000" d="M 1080 797 L 1566 1031" stroke-miterlimit="10" stroke-dasharray="3"/></g><g transform="translate(-214,-30) scale(1,1)"><path fill="#FFFFFF" stroke="none" d="M 1544.0345168680005 1029.7681108906058 L 1566 1031 L 1551.3391350682468 1014.596980782402"/></g><g transform="translate(-214,-30) scale(1,1)"><path fill="none" stroke="#000000" d="M 1544.0345168680005 1029.7681108906058 L 1566 1031 L 1551.3391350682468 1014.596980782402 L 1544.0345168680005 1029.7681108906058" stroke-miterlimit="10"/></g><g transform="translate(-214,-30) scale(1,1)"><rect fill="#C0C0C0" stroke="none" x="1559" y="1151" width="177.3271484375" height="70" opacity="0.2"/></g><g transform="translate(-214,-30) scale(1,1)"><rect fill="#ffffff" stroke="none" x="1552" y="1144" width="177.3271484375" height="70"/></g><g transform="translate(-214,-30) scale(1,1)"><path fill="none" stroke="#000000" d="M 1552 1144 L 1729.3271484375 1144 L 1729.3271484375 1214 L 1552 1214 L 1552 1144 Z Z" stroke-miterlimit="10"/></g><g transform="translate(-214,-30) scale(1,1)"><path fill="none" stroke="#000000" d="M 1552 1182 L 1729.3271484375 1182" stroke-miterlimit="10"/></g><g transform="translate(-214,-30) scale(1,1)"><path fill="none" stroke="#000000" d="M 1552 1192 L 1729.3271484375 1192" stroke-miterlimit="10"/></g><g transform="translate(-214,-30) scale(1,1)"><g><path fill="none" stroke="none"/><text fill="#000000" stroke="none" font-family="Source Sans Pro" font-size="13px" font-style="normal" font-weight="normal" text-decoration="none" x="1611.1731185913086" y="1161.5">«interface»</text></g></g><g transform="translate(-214,-30) scale(1,1)"><g><path fill="none" stroke="none"/><text fill="#000000" stroke="none" font-family="Source Sans Pro" font-size="13px" font-style="normal" font-weight="bold" text-decoration="none" x="1612.4406127929688" y="1176.5">Countable</text></g></g><g transform="translate(-214,-30) scale(1,1)"><g><path fill="none" stroke="none"/><text fill="#000000" stroke="none" font-family="Source Sans Pro" font-size="13px" font-style="normal" font-weight="normal" text-decoration="none" x="1557" y="1209.5">+count(*args, **kwargs): any</text></g></g><g transform="translate(-214,-30) scale(1,1)"><path fill="none" stroke="#000000" d="M 1067 797 L 1586 1143" stroke-miterlimit="10" stroke-dasharray="3"/></g><g transform="translate(-214,-30) scale(1,1)"><path fill="#FFFFFF" stroke="none" d="M 1564.4182461363566 1138.7305855004324 L 1586 1143 L 1573.7583274374592 1124.7204635487783"/></g><g transform="translate(-214,-30) scale(1,1)"><path fill="none" stroke="#000000" d="M 1564.4182461363566 1138.7305855004324 L 1586 1143 L 1573.7583274374592 1124.7204635487783 L 1564.4182461363566 1138.7305855004324" stroke-miterlimit="10"/></g><g transform="translate(-214,-30) scale(1,1)"><rect fill="#C0C0C0" stroke="none" x="919" y="551" width="237.7917022705078" height="57" opacity="0.2"/></g><g transform="translate(-214,-30) scale(1,1)"><rect fill="#ffffff" stroke="none" x="912" y="544" width="237.7917022705078" height="57"/></g><g transform="translate(-214,-30) scale(1,1)"><path fill="none" stroke="#000000" d="M 912 544 L 1149.7917022705078 544 L 1149.7917022705078 601 L 912 601 L 912 544 Z Z" stroke-miterlimit="10"/></g><g transform="translate(-214,-30) scale(1,1)"><path fill="none" stroke="#000000" d="M 912 580 L 1149.7917022705078 580" stroke-miterlimit="10"/></g><g transform="translate(-214,-30) scale(1,1)"><g><path fill="none" stroke="none"/><text fill="#000000" stroke="none" font-family="나눔고딕" font-size="12px" font-style="normal" font-weight="normal" text-decoration="none" x="995.2798919677734" y="560.5">«interface»</text></g></g><g transform="translate(-214,-30) scale(1,1)"><g><path fill="none" stroke="none"/><text fill="#000000" stroke="none" font-family="나눔고딕" font-size="12px" font-style="normal" font-weight="bold" text-decoration="none" x="963.1559143066406" y="574.5">DataAccessModelObject</text></g></g><g transform="translate(-214,-30) scale(1,1)"><g><path fill="none" stroke="none"/><text fill="#000000" stroke="none" font-family="나눔고딕" font-size="12px" font-style="normal" font-weight="normal" text-decoration="none" x="917" y="596.5">+__init__(connection: DataAccessObject)</text></g></g><g transform="translate(-214,-30) scale(1,1)"><rect fill="#C0C0C0" stroke="none" x="415" y="543" width="277.83563232421875" height="71" opacity="0.2"/></g><g transform="translate(-214,-30) scale(1,1)"><rect fill="#ffffff" stroke="none" x="408" y="536" width="277.83563232421875" height="71"/></g><g transform="translate(-214,-30) scale(1,1)"><path fill="none" stroke="#000000" d="M 408 536 L 685.8356323242188 536 L 685.8356323242188 607 L 408 607 L 408 536 Z Z" stroke-miterlimit="10"/></g><g transform="translate(-214,-30) scale(1,1)"><path fill="none" stroke="#000000" d="M 408 586 L 685.8356323242188 586" stroke-miterlimit="10"/></g><g transform="translate(-214,-30) scale(1,1)"><g><path fill="none" stroke="none"/><text fill="#000000" stroke="none" font-family="나눔고딕" font-size="12px" font-style="normal" font-weight="normal" text-decoration="none" x="511.3018569946289" y="552.5">«interface»</text></g></g><g transform="translate(-214,-30) scale(1,1)"><g><path fill="none" stroke="none"/><text fill="#000000" stroke="none" font-family="나눔고딕" font-size="12px" font-style="normal" font-weight="bold" text-decoration="none" x="496.98585510253906" y="566.5">DataAccessObject</text></g></g><g transform="translate(-214,-30) scale(1,1)"><g><path fill="none" stroke="none"/><text fill="#000000" stroke="none" font-family="나눔고딕" font-size="12px" font-style="normal" font-weight="normal" text-decoration="none" x="454.6619415283203" y="580.5">(from Data Access Object Model)</text></g></g><g transform="translate(-214,-30) scale(1,1)"><g><path fill="none" stroke="none"/><text fill="#000000" stroke="none" font-family="나눔고딕" font-size="12px" font-style="normal" font-weight="normal" text-decoration="none" x="413" y="602.5">+__init__(conf: DataAccessObjectConfiguration)</text></g></g><g transform="translate(-214,-30) scale(1,1)"><path fill="none" stroke="#000000" d="M 687 571 L 911 572" stroke-miterlimit="10"/></g><g transform="translate(-214,-30) scale(1,1)"><rect fill="#C0C0C0" stroke="none" x="263" y="383" width="193.51174926757812" height="71" opacity="0.2"/></g><g transform="translate(-214,-30) scale(1,1)"><rect fill="#ffffff" stroke="none" x="256" y="376" width="193.51174926757812" height="71"/></g><g transform="translate(-214,-30) scale(1,1)"><path fill="none" stroke="#000000" d="M 256 376 L 449.5117492675781 376 L 449.5117492675781 447 L 256 447 L 256 376 Z Z" stroke-miterlimit="10"/></g><g transform="translate(-214,-30) scale(1,1)"><path fill="none" stroke="#000000" d="M 256 426 L 449.5117492675781 426" stroke-miterlimit="10"/></g><g transform="translate(-214,-30) scale(1,1)"><g><path fill="none" stroke="none"/><text fill="#000000" stroke="none" font-family="나눔고딕" font-size="12px" font-style="normal" font-weight="normal" text-decoration="none" x="317.1399154663086" y="392.5">«interface»</text></g></g><g transform="translate(-214,-30) scale(1,1)"><g><path fill="none" stroke="none"/><text fill="#000000" stroke="none" font-family="나눔고딕" font-size="12px" font-style="normal" font-weight="bold" text-decoration="none" x="264.26798248291016" y="406.5">DataAccessObjectConfiguration</text></g></g><g transform="translate(-214,-30) scale(1,1)"><g><path fill="none" stroke="none"/><text fill="#000000" stroke="none" font-family="나눔고딕" font-size="12px" font-style="normal" font-weight="normal" text-decoration="none" x="260.5" y="420.5">(from Data Access Object Model)</text></g></g><g transform="translate(-214,-30) scale(1,1)"><g><path fill="none" stroke="none"/><text fill="#000000" stroke="none" font-family="나눔고딕" font-size="12px" font-style="normal" font-weight="normal" text-decoration="none" x="261" y="442.5">+__init__(*args, **kwargs)</text></g></g><g transform="translate(-214,-30) scale(1,1)"><path fill="none" stroke="#000000" d="M 397 448 L 502 535" stroke-miterlimit="10"/></g><g transform="translate(-214,-30) scale(1,1)"><path fill="none" stroke="#000000" d="M 1031 398 L 1030 543" stroke-miterlimit="10"/></g><g transform="translate(-214,-30) scale(1,1)"><path fill="none" stroke="#000000" d="M 1032 751 L 1030 602" stroke-miterlimit="10" stroke-dasharray="3"/></g><g transform="translate(-214,-30) scale(1,1)"><path fill="#FFFFFF" stroke="none" d="M 1038.6910760888456 622.2105219234412 L 1030 602 L 1021.8545217348463 622.4365159416157"/></g><g transform="translate(-214,-30) scale(1,1)"><path fill="none" stroke="#000000" d="M 1038.6910760888456 622.2105219234412 L 1030 602 L 1021.8545217348463 622.4365159416157 L 1038.6910760888456 622.2105219234412" stroke-miterlimit="10"/></g><g transform="translate(-214,-30) scale(1,1)"><rect fill="#C0C0C0" stroke="none" x="1391" y="527" width="211.34765625" height="81" opacity="0.2"/></g><g transform="translate(-214,-30) scale(1,1)"><rect fill="#ffffff" stroke="none" x="1384" y="520" width="211.34765625" height="81"/></g><g transform="translate(-214,-30) scale(1,1)"><path fill="none" stroke="#000000" d="M 1384 520 L 1595.34765625 520 L 1595.34765625 601 L 1384 601 L 1384 520 Z Z" stroke-miterlimit="10"/></g><g transform="translate(-214,-30) scale(1,1)"><path fill="none" stroke="#000000" d="M 1384 544 L 1595.34765625 544" stroke-miterlimit="10"/></g><g transform="translate(-214,-30) scale(1,1)"><path fill="none" stroke="#000000" d="M 1384 580 L 1595.34765625 580" stroke-miterlimit="10"/></g><g transform="translate(-214,-30) scale(1,1)"><g><path fill="none" stroke="none"/><text fill="#000000" stroke="none" font-family="나눔고딕" font-size="12px" font-style="normal" font-weight="bold" text-decoration="none" x="1391.1059341430664" y="538.5">DataAccessModelObjectParameters</text></g></g><g transform="translate(-214,-30) scale(1,1)"><g><path fill="none" stroke="none"/><text fill="#000000" stroke="none" font-family="나눔고딕" font-size="12px" font-style="normal" font-weight="normal" text-decoration="none" x="1389" y="560.5">+args</text></g></g><g transform="translate(-214,-30) scale(1,1)"><g><path fill="none" stroke="none"/><text fill="#000000" stroke="none" font-family="나눔고딕" font-size="12px" font-style="normal" font-weight="normal" text-decoration="none" x="1389" y="574.5">+kwargs</text></g></g><g transform="translate(-214,-30) scale(1,1)"><g><path fill="none" stroke="none"/><text fill="#000000" stroke="none" font-family="나눔고딕" font-size="12px" font-style="normal" font-weight="normal" text-decoration="none" x="1389" y="596.5">+__init__(*args, **kwargs)</text></g></g><g transform="translate(-214,-30) scale(1,1)"><path fill="none" stroke="#000000" d="M 1434 519 L 1273 398" stroke-miterlimit="10"/></g><g transform="translate(-214,-30) scale(1,1)"><path fill="none" stroke="#000000" d="M 596 535 L 785 398" stroke-miterlimit="10"/></g></g></svg>