<svg version="1.1" xmlns="http://www.w3.org/2000/svg" xmlns:xlink="http://www.w3.org/1999/xlink" width="1236.4876861572266" height="907"><defs/><g><g transform="translate(-158,-134) scale(1,1)"><rect fill="#C0C0C0" stroke="none" x="1175" y="967" width="192.07171630859375" height="57" opacity="0.2"/></g><g transform="translate(-158,-134) scale(1,1)"><rect fill="#ffff91" stroke="none" x="1168" y="960" width="192.07171630859375" height="57"/></g><g transform="translate(-158,-134) scale(1,1)"><path fill="none" stroke="#000000" d="M 1168 960 L 1360.0717163085938 960 L 1360.0717163085938 1017 L 1168 1017 L 1168 960 Z Z" stroke-miterlimit="10"/></g><g transform="translate(-158,-134) scale(1,1)"><path fill="none" stroke="#000000" d="M 1168 998 L 1360.0717163085938 998" stroke-miterlimit="10"/></g><g transform="translate(-158,-134) scale(1,1)"><path fill="none" stroke="#000000" d="M 1168 1008 L 1360.0717163085938 1008" stroke-miterlimit="10"/></g><g transform="translate(-158,-134) scale(1,1)"><g><path fill="none" stroke="none"/><text fill="#000000" stroke="none" font-family="나눔고딕" font-size="12px" font-style="normal" font-weight="bold" text-decoration="none" x="1212.675926208496" y="978.5">ValueModelObject</text></g></g><g transform="translate(-158,-134) scale(1,1)"><g><path fill="none" stroke="none"/><text fill="#000000" stroke="none" font-family="나눔고딕" font-size="12px" font-style="normal" font-weight="normal" text-decoration="none" x="1172.5" y="992.5">(from Data Model Object Model)</text></g></g><g transform="translate(-158,-134) scale(1,1)"><rect fill="#C0C0C0" stroke="none" x="215" y="943" width="199.4757080078125" height="95" opacity="0.2"/></g><g transform="translate(-158,-134) scale(1,1)"><rect fill="#ffffff" stroke="none" x="208" y="936" width="199.4757080078125" height="95"/></g><g transform="translate(-158,-134) scale(1,1)"><path fill="none" stroke="#000000" d="M 208 936 L 407.4757080078125 936 L 407.4757080078125 1031 L 208 1031 L 208 936 Z Z" stroke-miterlimit="10"/></g><g transform="translate(-158,-134) scale(1,1)"><path fill="none" stroke="#000000" d="M 208 986 L 407.4757080078125 986" stroke-miterlimit="10"/></g><g transform="translate(-158,-134) scale(1,1)"><path fill="none" stroke="#000000" d="M 208 996 L 407.4757080078125 996" stroke-miterlimit="10"/></g><g transform="translate(-158,-134) scale(1,1)"><g><path fill="none" stroke="none"/><text fill="#000000" stroke="none" font-family="나눔고딕" font-size="12px" font-style="normal" font-weight="normal" text-decoration="none" x="274.29988861083984" y="952.5">«abstract»</text></g></g><g transform="translate(-158,-134) scale(1,1)"><g><path fill="none" stroke="none"/><text fill="#000000" stroke="none" font-family="나눔고딕" font-size="12px" font-style="normal" font-weight="bold" text-decoration="none" x="258.5259094238281" y="966.5">DataModelObject</text></g></g><g transform="translate(-158,-134) scale(1,1)"><g><path fill="none" stroke="none"/><text fill="#000000" stroke="none" font-family="나눔고딕" font-size="12px" font-style="normal" font-weight="normal" text-decoration="none" x="216.20199584960938" y="980.5">(from Data Model Object Model)</text></g></g><g transform="translate(-158,-134) scale(1,1)"><g><path fill="none" stroke="none"/><text fill="#000000" stroke="none" font-family="나눔고딕" font-size="12px" font-style="normal" font-weight="normal" text-decoration="none" x="213" y="1012.5">+__init__(*args, **kwargs)</text></g></g><g transform="translate(-158,-134) scale(1,1)"><g><path fill="none" stroke="none"/><text fill="#000000" stroke="none" font-family="나눔고딕" font-size="12px" font-style="normal" font-weight="normal" text-decoration="none" x="213" y="1026.5">+CreateInstance(*args, **kwargs)</text></g></g><g transform="translate(-158,-134) scale(1,1)"><path fill="none" stroke="#000000" d="M 1167 987 L 408 984" stroke-miterlimit="10"/></g><g transform="translate(-158,-134) scale(1,1)"><path fill="#FFFFFF" stroke="none" d="M 428.35846750791103 975.6613669747775 L 408 984 L 428.2919143873708 992.4993064714489"/></g><g transform="translate(-158,-134) scale(1,1)"><path fill="none" stroke="#000000" d="M 428.35846750791103 975.6613669747775 L 408 984 L 428.2919143873708 992.4993064714489 L 428.35846750791103 975.6613669747775" stroke-miterlimit="10"/></g><g transform="translate(-158,-134) scale(1,1)"><rect fill="#C0C0C0" stroke="none" x="1159" y="727" width="232.48768615722656" height="57" opacity="0.2"/></g><g transform="translate(-158,-134) scale(1,1)"><rect fill="#ffff91" stroke="none" x="1152" y="720" width="232.48768615722656" height="57"/></g><g transform="translate(-158,-134) scale(1,1)"><path fill="none" stroke="#000000" d="M 1152 720 L 1384.4876861572266 720 L 1384.4876861572266 777 L 1152 777 L 1152 720 Z Z" stroke-miterlimit="10"/></g><g transform="translate(-158,-134) scale(1,1)"><path fill="none" stroke="#000000" d="M 1152 758 L 1384.4876861572266 758" stroke-miterlimit="10"/></g><g transform="translate(-158,-134) scale(1,1)"><path fill="none" stroke="#000000" d="M 1152 768 L 1384.4876861572266 768" stroke-miterlimit="10"/></g><g transform="translate(-158,-134) scale(1,1)"><g><path fill="none" stroke="none"/><text fill="#000000" stroke="none" font-family="나눔고딕" font-size="12px" font-style="normal" font-weight="bold" text-decoration="none" x="1198.3559188842773" y="738.5">ValueAccessModelObject</text></g></g><g transform="translate(-158,-134) scale(1,1)"><g><path fill="none" stroke="none"/><text fill="#000000" stroke="none" font-family="나눔고딕" font-size="12px" font-style="normal" font-weight="normal" text-decoration="none" x="1156.5" y="752.5">(from Data Access Model Object Model)</text></g></g><g transform="translate(-158,-134) scale(1,1)"><rect fill="#C0C0C0" stroke="none" x="183" y="727" width="266.48768615722656" height="71" opacity="0.2"/></g><g transform="translate(-158,-134) scale(1,1)"><rect fill="#ffffff" stroke="none" x="176" y="720" width="266.48768615722656" height="71"/></g><g transform="translate(-158,-134) scale(1,1)"><path fill="none" stroke="#000000" d="M 176 720 L 442.48768615722656 720 L 442.48768615722656 791 L 176 791 L 176 720 Z Z" stroke-miterlimit="10"/></g><g transform="translate(-158,-134) scale(1,1)"><path fill="none" stroke="#000000" d="M 176 770 L 442.48768615722656 770" stroke-miterlimit="10"/></g><g transform="translate(-158,-134) scale(1,1)"><g><path fill="none" stroke="none"/><text fill="#000000" stroke="none" font-family="나눔고딕" font-size="12px" font-style="normal" font-weight="normal" text-decoration="none" x="273.6278839111328" y="736.5">«interface»</text></g></g><g transform="translate(-158,-134) scale(1,1)"><g><path fill="none" stroke="none"/><text fill="#000000" stroke="none" font-family="나눔고딕" font-size="12px" font-style="normal" font-weight="bold" text-decoration="none" x="241.50390625" y="750.5">DataAccessModelObject</text></g></g><g transform="translate(-158,-134) scale(1,1)"><g><path fill="none" stroke="none"/><text fill="#000000" stroke="none" font-family="나눔고딕" font-size="12px" font-style="normal" font-weight="normal" text-decoration="none" x="197.5" y="764.5">(from Data Access Model Object Model)</text></g></g><g transform="translate(-158,-134) scale(1,1)"><g><path fill="none" stroke="none"/><text fill="#000000" stroke="none" font-family="나눔고딕" font-size="12px" font-style="normal" font-weight="normal" text-decoration="none" x="181" y="786.5">+__init__(connection: DataAccessObject)</text></g></g><g transform="translate(-158,-134) scale(1,1)"><path fill="none" stroke="#000000" d="M 1151 749 L 443 754" stroke-miterlimit="10" stroke-dasharray="3"/></g><g transform="translate(-158,-134) scale(1,1)"><path fill="#FFFFFF" stroke="none" d="M 463.2653878989141 745.4376373992604 L 443 754 L 463.38429786465906 762.275288548737"/></g><g transform="translate(-158,-134) scale(1,1)"><path fill="none" stroke="#000000" d="M 463.2653878989141 745.4376373992604 L 443 754 L 463.38429786465906 762.275288548737 L 463.2653878989141 745.4376373992604" stroke-miterlimit="10"/></g><g transform="translate(-158,-134) scale(1,1)"><rect fill="#C0C0C0" stroke="none" x="1175" y="375" width="193.51174926757812" height="57" opacity="0.2"/></g><g transform="translate(-158,-134) scale(1,1)"><rect fill="#ffff91" stroke="none" x="1168" y="368" width="193.51174926757812" height="57"/></g><g transform="translate(-158,-134) scale(1,1)"><path fill="none" stroke="#000000" d="M 1168 368 L 1361.5117492675781 368 L 1361.5117492675781 425 L 1168 425 L 1168 368 Z Z" stroke-miterlimit="10"/></g><g transform="translate(-158,-134) scale(1,1)"><path fill="none" stroke="#000000" d="M 1168 406 L 1361.5117492675781 406" stroke-miterlimit="10"/></g><g transform="translate(-158,-134) scale(1,1)"><path fill="none" stroke="#000000" d="M 1168 416 L 1361.5117492675781 416" stroke-miterlimit="10"/></g><g transform="translate(-158,-134) scale(1,1)"><g><path fill="none" stroke="none"/><text fill="#000000" stroke="none" font-family="나눔고딕" font-size="12px" font-style="normal" font-weight="bold" text-decoration="none" x="1212.675926208496" y="386.5">ValueAccessObejct</text></g></g><g transform="translate(-158,-134) scale(1,1)"><g><path fill="none" stroke="none"/><text fill="#000000" stroke="none" font-family="나눔고딕" font-size="12px" font-style="normal" font-weight="normal" text-decoration="none" x="1172.5" y="400.5">(from Data Access Object Model)</text></g></g><g transform="translate(-158,-134) scale(1,1)"><rect fill="#C0C0C0" stroke="none" x="903" y="159" width="193.51174926757812" height="57" opacity="0.2"/></g><g transform="translate(-158,-134) scale(1,1)"><rect fill="#ffff91" stroke="none" x="896" y="152" width="193.51174926757812" height="57"/></g><g transform="translate(-158,-134) scale(1,1)"><path fill="none" stroke="#000000" d="M 896 152 L 1089.5117492675781 152 L 1089.5117492675781 209 L 896 209 L 896 152 Z Z" stroke-miterlimit="10"/></g><g transform="translate(-158,-134) scale(1,1)"><path fill="none" stroke="#000000" d="M 896 190 L 1089.5117492675781 190" stroke-miterlimit="10"/></g><g transform="translate(-158,-134) scale(1,1)"><path fill="none" stroke="#000000" d="M 896 200 L 1089.5117492675781 200" stroke-miterlimit="10"/></g><g transform="translate(-158,-134) scale(1,1)"><g><path fill="none" stroke="none"/><text fill="#000000" stroke="none" font-family="나눔고딕" font-size="12px" font-style="normal" font-weight="bold" text-decoration="none" x="902.1199951171875" y="170.5">ValueAccessObjectConfiguration</text></g></g><g transform="translate(-158,-134) scale(1,1)"><g><path fill="none" stroke="none"/><text fill="#000000" stroke="none" font-family="나눔고딕" font-size="12px" font-style="normal" font-weight="normal" text-decoration="none" x="900.5" y="184.5">(from Data Access Object Model)</text></g></g><g transform="translate(-158,-134) scale(1,1)"><path fill="none" stroke="#000000" d="M 1227 367 L 1030 210" stroke-miterlimit="10"/></g><g transform="translate(-158,-134) scale(1,1)"><rect fill="#C0C0C0" stroke="none" x="911" y="543" width="193.51174926757812" height="57" opacity="0.2"/></g><g transform="translate(-158,-134) scale(1,1)"><rect fill="#ffff91" stroke="none" x="904" y="536" width="193.51174926757812" height="57"/></g><g transform="translate(-158,-134) scale(1,1)"><path fill="none" stroke="#000000" d="M 904 536 L 1097.5117492675781 536 L 1097.5117492675781 593 L 904 593 L 904 536 Z Z" stroke-miterlimit="10"/></g><g transform="translate(-158,-134) scale(1,1)"><path fill="none" stroke="#000000" d="M 904 574 L 1097.5117492675781 574" stroke-miterlimit="10"/></g><g transform="translate(-158,-134) scale(1,1)"><path fill="none" stroke="#000000" d="M 904 584 L 1097.5117492675781 584" stroke-miterlimit="10"/></g><g transform="translate(-158,-134) scale(1,1)"><g><path fill="none" stroke="none"/><text fill="#000000" stroke="none" font-family="나눔고딕" font-size="12px" font-style="normal" font-weight="bold" text-decoration="none" x="954.5979385375977" y="554.5">ValueTypeObject</text></g></g><g transform="translate(-158,-134) scale(1,1)"><g><path fill="none" stroke="none"/><text fill="#000000" stroke="none" font-family="나눔고딕" font-size="12px" font-style="normal" font-weight="normal" text-decoration="none" x="908.5" y="568.5">(from Data Access Object Model)</text></g></g><g transform="translate(-158,-134) scale(1,1)"><path fill="none" stroke="#000000" d="M 1217 426 L 1046 535" stroke-miterlimit="10"/></g><g transform="translate(-158,-134) scale(1,1)"><rect fill="#C0C0C0" stroke="none" x="175" y="375" width="277.83563232421875" height="71" opacity="0.2"/></g><g transform="translate(-158,-134) scale(1,1)"><rect fill="#ffffff" stroke="none" x="168" y="368" width="277.83563232421875" height="71"/></g><g transform="translate(-158,-134) scale(1,1)"><path fill="none" stroke="#000000" d="M 168 368 L 445.83563232421875 368 L 445.83563232421875 439 L 168 439 L 168 368 Z Z" stroke-miterlimit="10"/></g><g transform="translate(-158,-134) scale(1,1)"><path fill="none" stroke="#000000" d="M 168 418 L 445.83563232421875 418" stroke-miterlimit="10"/></g><g transform="translate(-158,-134) scale(1,1)"><g><path fill="none" stroke="none"/><text fill="#000000" stroke="none" font-family="나눔고딕" font-size="12px" font-style="normal" font-weight="normal" text-decoration="none" x="271.3018569946289" y="384.5">«interface»</text></g></g><g transform="translate(-158,-134) scale(1,1)"><g><path fill="none" stroke="none"/><text fill="#000000" stroke="none" font-family="나눔고딕" font-size="12px" font-style="normal" font-weight="bold" text-decoration="none" x="256.98585510253906" y="398.5">DataAccessObject</text></g></g><g transform="translate(-158,-134) scale(1,1)"><g><path fill="none" stroke="none"/><text fill="#000000" stroke="none" font-family="나눔고딕" font-size="12px" font-style="normal" font-weight="normal" text-decoration="none" x="214.6619415283203" y="412.5">(from Data Access Object Model)</text></g></g><g transform="translate(-158,-134) scale(1,1)"><g><path fill="none" stroke="none"/><text fill="#000000" stroke="none" font-family="나눔고딕" font-size="12px" font-style="normal" font-weight="normal" text-decoration="none" x="173" y="434.5">+__init__(conf: DataAccessObjectConfiguration)</text></g></g><g transform="translate(-158,-134) scale(1,1)"><path fill="none" stroke="#000000" d="M 306 440 L 309 719" stroke-miterlimit="10"/></g><g transform="translate(-158,-134) scale(1,1)"><path fill="none" stroke="#000000" d="M 1167 397 L 447 402" stroke-miterlimit="10" stroke-dasharray="3"/></g><g transform="translate(-158,-134) scale(1,1)"><path fill="#FFFFFF" stroke="none" d="M 467.2663955201612 393.4400226273435 L 447 402 L 467.3833237495234 410.2776876555059"/></g><g transform="translate(-158,-134) scale(1,1)"><path fill="none" stroke="#000000" d="M 467.2663955201612 393.4400226273435 L 447 402 L 467.3833237495234 410.2776876555059 L 467.2663955201612 393.4400226273435" stroke-miterlimit="10"/></g><g transform="translate(-158,-134) scale(1,1)"><rect fill="#C0C0C0" stroke="none" x="535" y="543" width="193.7877655029297" height="71" opacity="0.2"/></g><g transform="translate(-158,-134) scale(1,1)"><rect fill="#ffffff" stroke="none" x="528" y="536" width="193.7877655029297" height="71"/></g><g transform="translate(-158,-134) scale(1,1)"><path fill="none" stroke="#000000" d="M 528 536 L 721.7877655029297 536 L 721.7877655029297 607 L 528 607 L 528 536 Z Z" stroke-miterlimit="10"/></g><g transform="translate(-158,-134) scale(1,1)"><path fill="none" stroke="#000000" d="M 528 586 L 721.7877655029297 586" stroke-miterlimit="10"/></g><g transform="translate(-158,-134) scale(1,1)"><g><path fill="none" stroke="none"/><text fill="#000000" stroke="none" font-family="나눔고딕" font-size="12px" font-style="normal" font-weight="normal" text-decoration="none" x="589.2779235839844" y="552.5">«interface»</text></g></g><g transform="translate(-158,-134) scale(1,1)"><g><path fill="none" stroke="none"/><text fill="#000000" stroke="none" font-family="나눔고딕" font-size="12px" font-style="normal" font-weight="bold" text-decoration="none" x="580.8839340209961" y="566.5">DataTypeObject</text></g></g><g transform="translate(-158,-134) scale(1,1)"><g><path fill="none" stroke="none"/><text fill="#000000" stroke="none" font-family="나눔고딕" font-size="12px" font-style="normal" font-weight="normal" text-decoration="none" x="532.6380081176758" y="580.5">(from Data Access Object Model)</text></g></g><g transform="translate(-158,-134) scale(1,1)"><g><path fill="none" stroke="none"/><text fill="#000000" stroke="none" font-family="나눔고딕" font-size="12px" font-style="normal" font-weight="normal" text-decoration="none" x="533" y="602.5">+__init__(obj: DataAccessObject)</text></g></g><g transform="translate(-158,-134) scale(1,1)"><path fill="none" stroke="#000000" d="M 376 440 L 556 535" stroke-miterlimit="10"/></g><g transform="translate(-158,-134) scale(1,1)"><path fill="none" stroke="#000000" d="M 903 566 L 723 569" stroke-miterlimit="10" stroke-dasharray="3"/></g><g transform="translate(-158,-134) scale(1,1)"><path fill="#FFFFFF" stroke="none" d="M 743.1822295639068 560.2434247659393 L 723 569 L 743.4628251120766 577.0791576561277"/></g><g transform="translate(-158,-134) scale(1,1)"><path fill="none" stroke="#000000" d="M 743.1822295639068 560.2434247659393 L 723 569 L 743.4628251120766 577.0791576561277 L 743.1822295639068 560.2434247659393" stroke-miterlimit="10"/></g><g transform="translate(-158,-134) scale(1,1)"><rect fill="#C0C0C0" stroke="none" x="535" y="151" width="193.51174926757812" height="71" opacity="0.2"/></g><g transform="translate(-158,-134) scale(1,1)"><rect fill="#ffffff" stroke="none" x="528" y="144" width="193.51174926757812" height="71"/></g><g transform="translate(-158,-134) scale(1,1)"><path fill="none" stroke="#000000" d="M 528 144 L 721.5117492675781 144 L 721.5117492675781 215 L 528 215 L 528 144 Z Z" stroke-miterlimit="10"/></g><g transform="translate(-158,-134) scale(1,1)"><path fill="none" stroke="#000000" d="M 528 194 L 721.5117492675781 194" stroke-miterlimit="10"/></g><g transform="translate(-158,-134) scale(1,1)"><g><path fill="none" stroke="none"/><text fill="#000000" stroke="none" font-family="나눔고딕" font-size="12px" font-style="normal" font-weight="normal" text-decoration="none" x="589.1399154663086" y="160.5">«interface»</text></g></g><g transform="translate(-158,-134) scale(1,1)"><g><path fill="none" stroke="none"/><text fill="#000000" stroke="none" font-family="나눔고딕" font-size="12px" font-style="normal" font-weight="bold" text-decoration="none" x="536.2679824829102" y="174.5">DataAccessObjectConfiguration</text></g></g><g transform="translate(-158,-134) scale(1,1)"><g><path fill="none" stroke="none"/><text fill="#000000" stroke="none" font-family="나눔고딕" font-size="12px" font-style="normal" font-weight="normal" text-decoration="none" x="532.5" y="188.5">(from Data Access Object Model)</text></g></g><g transform="translate(-158,-134) scale(1,1)"><g><path fill="none" stroke="none"/><text fill="#000000" stroke="none" font-family="나눔고딕" font-size="12px" font-style="normal" font-weight="normal" text-decoration="none" x="533" y="210.5">+__init__(*args, **kwargs)</text></g></g><g transform="translate(-158,-134) scale(1,1)"><path fill="none" stroke="#000000" d="M 571 216 L 357 367" stroke-miterlimit="10"/></g><g transform="translate(-158,-134) scale(1,1)"><path fill="none" stroke="#000000" d="M 895 180 L 723 179" stroke-miterlimit="10" stroke-dasharray="3"/></g><g transform="translate(-158,-134) scale(1,1)"><path fill="#FFFFFF" stroke="none" d="M 743.3739532582961 170.69927541543703 L 723 179 L 743.2760591510253 187.53706186601252"/></g><g transform="translate(-158,-134) scale(1,1)"><path fill="none" stroke="#000000" d="M 743.3739532582961 170.69927541543703 L 723 179 L 743.2760591510253 187.53706186601252 L 743.3739532582961 170.69927541543703" stroke-miterlimit="10"/></g><g transform="translate(-158,-134) scale(1,1)"><path fill="none" stroke="#000000" d="M 1264 426 L 1268 719" stroke-miterlimit="10"/></g><g transform="translate(-158,-134) scale(1,1)"><path fill="none" stroke="#000000" d="M 1268 778 L 1264 959" stroke-miterlimit="10"/></g></g></svg>