<svg version="1.1" xmlns="http://www.w3.org/2000/svg" xmlns:xlink="http://www.w3.org/1999/xlink" width="1646.2987976074219" height="1388"><defs/><g><g><rect fill="#C0C0C0" stroke="none" x="191" y="399" width="297.96270751953125" height="86" transform="matrix(1 0 0 1 -174 -30)" fill-opacity="0.2"/></g><g><rect fill="#ffffff" stroke="none" x="184" y="392" width="297.96270751953125" height="86" transform="matrix(1 0 0 1 -174 -30)"/></g><g><path fill="none" stroke="#000000" paint-order="fill stroke markers" d=" M 10 362 L 307.96270751953125 362 L 307.96270751953125 448 L 10 448 L 10 362 Z Z" stroke-miterlimit="10" stroke-dasharray=""/></g><g><path fill="none" stroke="#000000" paint-order="fill stroke markers" d=" M 10 387 L 307.96270751953125 387" stroke-miterlimit="10" stroke-dasharray=""/></g><g><path fill="none" stroke="#000000" paint-order="fill stroke markers" d=" M 10 410 L 307.96270751953125 410" stroke-miterlimit="10" stroke-dasharray=""/></g><g><g><path fill="none" stroke="none"/><text fill="#000000" stroke="none" font-family="&quot;Source Sans Pro&quot;" font-size="13px" font-style="normal" font-weight="bold" text-decoration="undefined" x="333.4813537597656" y="405.5" text-anchor="middle" dominant-baseline="central" transform="matrix(1 0 0 1 -174 -30)">Helper</text></g></g><g><g><path fill="none" stroke="none"/><text fill="#000000" stroke="none" font-family="&quot;Source Sans Pro&quot;" font-size="13px" font-style="normal" font-weight="normal" text-decoration="undefined" x="189" y="428.5" text-anchor="start" dominant-baseline="central" transform="matrix(1 0 0 1 -174 -30)">-brokers: dict&lt;Factory&gt;</text></g></g><g><g><path fill="none" stroke="none"/><text fill="#000000" stroke="none" font-family="&quot;Source Sans Pro&quot;" font-size="13px" font-style="normal" font-weight="normal" text-decoration="undefined" x="189" y="451.5" text-anchor="start" dominant-baseline="central" transform="matrix(1 0 0 1 -174 -30)">+get(name): Connection</text></g></g><g><g><path fill="none" stroke="none"/><text fill="#000000" stroke="none" font-family="&quot;Source Sans Pro&quot;" font-size="13px" font-style="normal" font-weight="normal" text-decoration="undefined" x="189" y="466.5" text-anchor="start" dominant-baseline="central" transform="matrix(1 0 0 1 -174 -30)">+set(key, obj: type&lt;Connection&gt;, conf: Configuration)</text></g></g><g><path fill="#C0C0C0" stroke="none" paint-order="stroke fill markers" d=" M 847.8429641723633 381 C 847.8429641723633 374.3725824 853.2155465723633 369 859.8429641723633 369 C 866.4703817723632 369 871.8429641723633 374.3725824 871.8429641723633 381 C 871.8429641723633 387.6274176 866.4703817723632 393 859.8429641723633 393 C 853.2155465723633 393 847.8429641723633 387.6274176 847.8429641723633 381 Z" fill-opacity="0.2"/></g><g><path fill="#ffffff" stroke="none" paint-order="stroke fill markers" d=" M 840.8429641723633 374 C 840.8429641723633 367.3725824 846.2155465723633 362 852.8429641723633 362 C 859.4703817723632 362 864.8429641723633 367.3725824 864.8429641723633 374 C 864.8429641723633 380.6274176 859.4703817723632 386 852.8429641723633 386 C 846.2155465723633 386 840.8429641723633 380.6274176 840.8429641723633 374 Z"/></g><g><path fill="none" stroke="#000000" paint-order="fill stroke markers" d=" M 840.8429641723633 374 C 840.8429641723633 367.3725824 846.2155465723633 362 852.8429641723633 362 C 859.4703817723632 362 864.8429641723633 367.3725824 864.8429641723633 374 C 864.8429641723633 380.6274176 859.4703817723632 386 852.8429641723633 386 C 846.2155465723633 386 840.8429641723633 380.6274176 840.8429641723633 374 Z" stroke-miterlimit="10" stroke-dasharray=""/></g><g><path fill="none" stroke="#000000" paint-order="fill stroke markers" d=" M 810 411 L 895.6859283447266 411" stroke-miterlimit="10" stroke-dasharray=""/></g><g><g><path fill="none" stroke="none"/><text fill="#000000" stroke="none" font-family="&quot;Source Sans Pro&quot;" font-size="13px" font-style="normal" font-weight="bold" text-decoration="undefined" x="1027.3429641723633" y="429.5" text-anchor="middle" dominant-baseline="central" transform="matrix(1 0 0 1 -174 -30)">Connection</text></g></g><g><g><path fill="none" stroke="none"/><text fill="#000000" stroke="none" font-family="&quot;Source Sans Pro&quot;" font-size="13px" font-style="normal" font-weight="normal" text-decoration="undefined" x="989" y="452.5" text-anchor="start" dominant-baseline="central" transform="matrix(1 0 0 1 -174 -30)">+connect()</text></g></g><g><g><path fill="none" stroke="none"/><text fill="#000000" stroke="none" font-family="&quot;Source Sans Pro&quot;" font-size="13px" font-style="normal" font-weight="normal" text-decoration="undefined" x="989" y="467.5" text-anchor="start" dominant-baseline="central" transform="matrix(1 0 0 1 -174 -30)">+close()</text></g></g><g><path fill="#C0C0C0" stroke="none" paint-order="stroke fill markers" d=" M 513.4703979492188 781 C 513.4703979492188 774.3725824 518.8429803492188 769 525.4703979492188 769 C 532.0978155492187 769 537.4703979492188 774.3725824 537.4703979492188 781 C 537.4703979492188 787.6274176 532.0978155492187 793 525.4703979492188 793 C 518.8429803492188 793 513.4703979492188 787.6274176 513.4703979492188 781 Z" fill-opacity="0.2"/></g><g><path fill="#ffffff" stroke="none" paint-order="stroke fill markers" d=" M 506.47039794921875 774 C 506.47039794921875 767.3725824 511.8429803492188 762 518.4703979492188 762 C 525.0978155492187 762 530.4703979492188 767.3725824 530.4703979492188 774 C 530.4703979492188 780.6274176 525.0978155492187 786 518.4703979492188 786 C 511.8429803492188 786 506.47039794921875 780.6274176 506.47039794921875 774 Z"/></g><g><path fill="none" stroke="#000000" paint-order="fill stroke markers" d=" M 506.47039794921875 774 C 506.47039794921875 767.3725824 511.8429803492188 762 518.4703979492188 762 C 525.0978155492187 762 530.4703979492188 767.3725824 530.4703979492188 774 C 530.4703979492188 780.6274176 525.0978155492187 786 518.4703979492188 786 C 511.8429803492188 786 506.47039794921875 780.6274176 506.47039794921875 774 Z" stroke-miterlimit="10" stroke-dasharray=""/></g><g><path fill="none" stroke="#000000" paint-order="fill stroke markers" d=" M 426 811 L 610.9407958984375 811" stroke-miterlimit="10" stroke-dasharray=""/></g><g><g><path fill="none" stroke="none"/><text fill="#000000" stroke="none" font-family="&quot;Source Sans Pro&quot;" font-size="13px" font-style="normal" font-weight="bold" text-decoration="undefined" x="692.9703979492188" y="829.5" text-anchor="middle" dominant-baseline="central" transform="matrix(1 0 0 1 -174 -30)">GetExchange</text></g></g><g><g><path fill="none" stroke="none"/><text fill="#000000" stroke="none" font-family="&quot;Source Sans Pro&quot;" font-size="13px" font-style="normal" font-weight="normal" text-decoration="undefined" x="605" y="852.5" text-anchor="start" dominant-baseline="central" transform="matrix(1 0 0 1 -174 -30)">+exchange(name: str): Exchange</text></g></g><g><path fill="#C0C0C0" stroke="none" paint-order="stroke fill markers" d=" M 848.6354293823242 781 C 848.6354293823242 774.3725824 854.0080117823243 769 860.6354293823242 769 C 867.2628469823242 769 872.6354293823242 774.3725824 872.6354293823242 781 C 872.6354293823242 787.6274176 867.2628469823242 793 860.6354293823242 793 C 854.0080117823243 793 848.6354293823242 787.6274176 848.6354293823242 781 Z" fill-opacity="0.2"/></g><g><path fill="#ffffff" stroke="none" paint-order="stroke fill markers" d=" M 841.6354293823242 774 C 841.6354293823242 767.3725824 847.0080117823243 762 853.6354293823242 762 C 860.2628469823242 762 865.6354293823242 767.3725824 865.6354293823242 774 C 865.6354293823242 780.6274176 860.2628469823242 786 853.6354293823242 786 C 847.0080117823243 786 841.6354293823242 780.6274176 841.6354293823242 774 Z"/></g><g><path fill="none" stroke="#000000" paint-order="fill stroke markers" d=" M 841.6354293823242 774 C 841.6354293823242 767.3725824 847.0080117823243 762 853.6354293823242 762 C 860.2628469823242 762 865.6354293823242 767.3725824 865.6354293823242 774 C 865.6354293823242 780.6274176 860.2628469823242 786 853.6354293823242 786 C 847.0080117823243 786 841.6354293823242 780.6274176 841.6354293823242 774 Z" stroke-miterlimit="10" stroke-dasharray=""/></g><g><path fill="none" stroke="#000000" paint-order="fill stroke markers" d=" M 778 811 L 929.2708587646484 811" stroke-miterlimit="10" stroke-dasharray=""/></g><g><g><path fill="none" stroke="none"/><text fill="#000000" stroke="none" font-family="&quot;Source Sans Pro&quot;" font-size="13px" font-style="normal" font-weight="bold" text-decoration="undefined" x="1028.1354293823242" y="829.5" text-anchor="middle" dominant-baseline="central" transform="matrix(1 0 0 1 -174 -30)">GetQueue</text></g></g><g><g><path fill="none" stroke="none"/><text fill="#000000" stroke="none" font-family="&quot;Source Sans Pro&quot;" font-size="13px" font-style="normal" font-weight="normal" text-decoration="undefined" x="957" y="852.5" text-anchor="start" dominant-baseline="central" transform="matrix(1 0 0 1 -174 -30)">+queue(name: str): Queue</text></g></g><g><path fill="#C0C0C0" stroke="none" paint-order="stroke fill markers" d=" M 1203.75732421875 781 C 1203.75732421875 774.3725824 1209.12990661875 769 1215.75732421875 769 C 1222.38474181875 769 1227.75732421875 774.3725824 1227.75732421875 781 C 1227.75732421875 787.6274176 1222.38474181875 793 1215.75732421875 793 C 1209.12990661875 793 1203.75732421875 787.6274176 1203.75732421875 781 Z" fill-opacity="0.2"/></g><g><path fill="#ffffff" stroke="none" paint-order="stroke fill markers" d=" M 1196.75732421875 774 C 1196.75732421875 767.3725824 1202.12990661875 762 1208.75732421875 762 C 1215.38474181875 762 1220.75732421875 767.3725824 1220.75732421875 774 C 1220.75732421875 780.6274176 1215.38474181875 786 1208.75732421875 786 C 1202.12990661875 786 1196.75732421875 780.6274176 1196.75732421875 774 Z"/></g><g><path fill="none" stroke="#000000" paint-order="fill stroke markers" d=" M 1196.75732421875 774 C 1196.75732421875 767.3725824 1202.12990661875 762 1208.75732421875 762 C 1215.38474181875 762 1220.75732421875 767.3725824 1220.75732421875 774 C 1220.75732421875 780.6274176 1215.38474181875 786 1208.75732421875 786 C 1202.12990661875 786 1196.75732421875 780.6274176 1196.75732421875 774 Z" stroke-miterlimit="10" stroke-dasharray=""/></g><g><path fill="none" stroke="#000000" paint-order="fill stroke markers" d=" M 1050 811 L 1367.5146484375 811" stroke-miterlimit="10" stroke-dasharray=""/></g><g><g><path fill="none" stroke="none"/><text fill="#000000" stroke="none" font-family="&quot;Source Sans Pro&quot;" font-size="13px" font-style="normal" font-weight="bold" text-decoration="undefined" x="1383.25732421875" y="829.5" text-anchor="middle" dominant-baseline="central" transform="matrix(1 0 0 1 -174 -30)">GetConsumer</text></g></g><g><g><path fill="none" stroke="none"/><text fill="#000000" stroke="none" font-family="&quot;Source Sans Pro&quot;" font-size="13px" font-style="normal" font-weight="normal" text-decoration="undefined" x="1229" y="852.5" text-anchor="start" dominant-baseline="central" transform="matrix(1 0 0 1 -174 -30)">+consumer(handler: EventHandler, **kwargs): Consumer</text></g></g><g><rect fill="#C0C0C0" stroke="none" x="255" y="47" width="162.29478454589844" height="73" transform="matrix(1 0 0 1 -174 -30)" fill-opacity="0.2"/></g><g><rect fill="#ffffff" stroke="none" x="248" y="40" width="162.29478454589844" height="73" transform="matrix(1 0 0 1 -174 -30)"/></g><g><path fill="none" stroke="#000000" paint-order="fill stroke markers" d=" M 74 10 L 236.29478454589844 10 L 236.29478454589844 83 L 74 83 L 74 10 Z Z" stroke-miterlimit="10" stroke-dasharray=""/></g><g><path fill="none" stroke="#000000" paint-order="fill stroke markers" d=" M 74 63 L 236.29478454589844 63" stroke-miterlimit="10" stroke-dasharray=""/></g><g><path fill="none" stroke="#000000" paint-order="fill stroke markers" d=" M 74 73 L 236.29478454589844 73" stroke-miterlimit="10" stroke-dasharray=""/></g><g><g><path fill="none" stroke="none"/><text fill="#000000" stroke="none" font-family="&quot;Source Sans Pro&quot;" font-size="13px" font-style="normal" font-weight="normal" text-decoration="undefined" x="329.6473922729492" y="51.5" text-anchor="middle" dominant-baseline="central" transform="matrix(1 0 0 1 -174 -30)">«abstract»</text></g></g><g><g><path fill="none" stroke="none"/><text fill="#000000" stroke="none" font-family="&quot;Source Sans Pro&quot;" font-size="13px" font-style="normal" font-weight="bold" text-decoration="undefined" x="329.6473922729492" y="66.5" text-anchor="middle" dominant-baseline="central" transform="matrix(1 0 0 1 -174 -30)">Singleton(metaclass=Meta)</text></g></g><g><g><path fill="none" stroke="none"/><text fill="#000000" stroke="none" font-family="&quot;Source Sans Pro&quot;" font-size="13px" font-style="normal" font-weight="normal" text-decoration="undefined" x="329.6473922729492" y="81.5" text-anchor="middle" dominant-baseline="central" transform="matrix(1 0 0 1 -174 -30)">(from Desgin Pattern Model)</text></g></g><g><path fill="none" stroke="#000000" paint-order="fill stroke markers" d=" M 158 361 L 155 84" stroke-miterlimit="10" stroke-dasharray=""/></g><g><path fill="#FFFFFF" stroke="none" paint-order="stroke fill markers" d=" M 163.6386590284028 104.23298223670932 L 155 84 L 146.8015754361379 104.41533332254613"/></g><g><path fill="none" stroke="#000000" paint-order="fill stroke markers" d=" M 163.6386590284028 104.23298223670932 L 155 84 L 146.8015754361379 104.41533332254613 L 163.6386590284028 104.23298223670932" stroke-miterlimit="10" stroke-dasharray=""/></g><g><path fill="#C0C0C0" stroke="none" paint-order="stroke fill markers" d=" M 848.6164627075195 237 C 848.6164627075195 230.3725824 853.9890451075196 225 860.6164627075195 225 C 867.2438803075195 225 872.6164627075195 230.3725824 872.6164627075195 237 C 872.6164627075195 243.6274176 867.2438803075195 249 860.6164627075195 249 C 853.9890451075196 249 848.6164627075195 243.6274176 848.6164627075195 237 Z" fill-opacity="0.2"/></g><g><path fill="#ffffff" stroke="none" paint-order="stroke fill markers" d=" M 841.6164627075195 230 C 841.6164627075195 223.3725824 846.9890451075196 218 853.6164627075195 218 C 860.2438803075195 218 865.6164627075195 223.3725824 865.6164627075195 230 C 865.6164627075195 236.6274176 860.2438803075195 242 853.6164627075195 242 C 846.9890451075196 242 841.6164627075195 236.6274176 841.6164627075195 230 Z"/></g><g><path fill="none" stroke="#000000" paint-order="fill stroke markers" d=" M 841.6164627075195 230 C 841.6164627075195 223.3725824 846.9890451075196 218 853.6164627075195 218 C 860.2438803075195 218 865.6164627075195 223.3725824 865.6164627075195 230 C 865.6164627075195 236.6274176 860.2438803075195 242 853.6164627075195 242 C 846.9890451075196 242 841.6164627075195 236.6274176 841.6164627075195 230 Z" stroke-miterlimit="10" stroke-dasharray=""/></g><g><path fill="none" stroke="#000000" paint-order="fill stroke markers" d=" M 810 267 L 897.2329254150391 267" stroke-miterlimit="10" stroke-dasharray=""/></g><g><g><path fill="none" stroke="none"/><text fill="#000000" stroke="none" font-family="&quot;Source Sans Pro&quot;" font-size="13px" font-style="normal" font-weight="bold" text-decoration="undefined" x="1028.1164627075195" y="285.5" text-anchor="middle" dominant-baseline="central" transform="matrix(1 0 0 1 -174 -30)">Configuration</text></g></g><g><rect fill="#C0C0C0" stroke="none" x="623" y="399" width="167.71578979492188" height="86" transform="matrix(1 0 0 1 -174 -30)" fill-opacity="0.2"/></g><g><rect fill="#ffffff" stroke="none" x="616" y="392" width="167.71578979492188" height="86" transform="matrix(1 0 0 1 -174 -30)"/></g><g><path fill="none" stroke="#000000" paint-order="fill stroke markers" d=" M 442 362 L 609.7157897949219 362 L 609.7157897949219 448 L 442 448 L 442 362 Z Z" stroke-miterlimit="10" stroke-dasharray=""/></g><g><path fill="none" stroke="#000000" paint-order="fill stroke markers" d=" M 442 387 L 609.7157897949219 387" stroke-miterlimit="10" stroke-dasharray=""/></g><g><path fill="none" stroke="#000000" paint-order="fill stroke markers" d=" M 442 425 L 609.7157897949219 425" stroke-miterlimit="10" stroke-dasharray=""/></g><g><g><path fill="none" stroke="none"/><text fill="#000000" stroke="none" font-family="&quot;Source Sans Pro&quot;" font-size="13px" font-style="normal" font-weight="bold" text-decoration="undefined" x="700.3578948974609" y="405.5" text-anchor="middle" dominant-baseline="central" transform="matrix(1 0 0 1 -174 -30)">Factory</text></g></g><g><g><path fill="none" stroke="none"/><text fill="#000000" stroke="none" font-family="&quot;Source Sans Pro&quot;" font-size="13px" font-style="normal" font-weight="normal" text-decoration="undefined" x="621" y="428.5" text-anchor="start" dominant-baseline="central" transform="matrix(1 0 0 1 -174 -30)">-object: type&lt;Connection&gt;</text></g></g><g><g><path fill="none" stroke="none"/><text fill="#000000" stroke="none" font-family="&quot;Source Sans Pro&quot;" font-size="13px" font-style="normal" font-weight="normal" text-decoration="undefined" x="621" y="443.5" text-anchor="start" dominant-baseline="central" transform="matrix(1 0 0 1 -174 -30)">-configuration: Configuration</text></g></g><g><g><path fill="none" stroke="none"/><text fill="#000000" stroke="none" font-family="&quot;Source Sans Pro&quot;" font-size="13px" font-style="normal" font-weight="normal" text-decoration="undefined" x="621" y="466.5" text-anchor="start" dominant-baseline="central" transform="matrix(1 0 0 1 -174 -30)">+connect(): Connection</text></g></g><g><path fill="none" stroke="#000000" paint-order="fill stroke markers" d=" M 441 405 L 309 405" stroke-miterlimit="10" stroke-dasharray=""/></g><g><path fill="#000000" stroke="none" paint-order="stroke fill markers" d=" M 319.16267485762415 400.790482243984 L 309 405 L 319.16267485762415 409.209517756016 L 331 405"/></g><g><path fill="none" stroke="#000000" paint-order="fill stroke markers" d=" M 319.16267485762415 400.790482243984 L 309 405 L 319.16267485762415 409.209517756016 L 331 405 L 319.16267485762415 400.790482243984" stroke-miterlimit="10" stroke-dasharray=""/></g><g><path fill="none" stroke="#000000" paint-order="fill stroke markers" d=" M 611 405 L 809 405" stroke-miterlimit="10" stroke-dasharray=""/></g><g><path fill="none" stroke="#000000" paint-order="fill stroke markers" d=" M 611 364 L 809 268" stroke-miterlimit="10" stroke-dasharray=""/></g><g><rect fill="#C0C0C0" stroke="none" x="991" y="615" width="81.62992858886719" height="45" transform="matrix(1 0 0 1 -174 -30)" fill-opacity="0.2"/></g><g><rect fill="#FFFFD8" stroke="none" x="984" y="608" width="81.62992858886719" height="45" transform="matrix(1 0 0 1 -174 -30)"/></g><g><path fill="none" stroke="#000000" paint-order="fill stroke markers" d=" M 810 578 L 891.6299285888672 578 L 891.6299285888672 623 L 810 623 L 810 578 Z Z" stroke-miterlimit="10" stroke-dasharray=""/></g><g><path fill="none" stroke="#000000" paint-order="fill stroke markers" d=" M 810 603 L 891.6299285888672 603" stroke-miterlimit="10" stroke-dasharray=""/></g><g><path fill="none" stroke="#000000" paint-order="fill stroke markers" d=" M 810 613 L 891.6299285888672 613" stroke-miterlimit="10" stroke-dasharray=""/></g><g><g><path fill="none" stroke="none"/><text fill="#000000" stroke="none" font-family="&quot;Source Sans Pro&quot;" font-size="13px" font-style="normal" font-weight="bold" text-decoration="undefined" x="1025.3149642944336" y="621.5" text-anchor="middle" dominant-baseline="central" transform="matrix(1 0 0 1 -174 -30)">Connection</text></g></g><g><path fill="none" stroke="#000000" paint-order="fill stroke markers" d=" M 850 624 L 852 761" stroke-miterlimit="10" stroke-dasharray=""/></g><g><path fill="#FFFFFF" stroke="none" paint-order="stroke fill markers" d=" M 843.2851726452587 740.7997083145551 L 852 761 L 860.1214497133167 740.5539232478682"/></g><g><path fill="none" stroke="#000000" paint-order="fill stroke markers" d=" M 843.2851726452587 740.7997083145551 L 852 761 L 860.1214497133167 740.5539232478682 L 843.2851726452587 740.7997083145551" stroke-miterlimit="10" stroke-dasharray=""/></g><g><path fill="none" stroke="#000000" paint-order="fill stroke markers" d=" M 810 624 L 580 761" stroke-miterlimit="10" stroke-dasharray=""/></g><g><path fill="#FFFFFF" stroke="none" paint-order="stroke fill markers" d=" M 593.153837457915 743.3654725004963 L 580 761 L 601.770661643037 757.8316736871975"/></g><g><path fill="none" stroke="#000000" paint-order="fill stroke markers" d=" M 593.153837457915 743.3654725004963 L 580 761 L 601.770661643037 757.8316736871975 L 593.153837457915 743.3654725004963" stroke-miterlimit="10" stroke-dasharray=""/></g><g><path fill="none" stroke="#000000" paint-order="fill stroke markers" d=" M 893 624 L 1141 761" stroke-miterlimit="10" stroke-dasharray=""/></g><g><path fill="#FFFFFF" stroke="none" paint-order="stroke fill markers" d=" M 1119.1378390871905 758.5411546973376 L 1141 761 L 1127.2797839545622 743.8024515797597"/></g><g><path fill="none" stroke="#000000" paint-order="fill stroke markers" d=" M 1119.1378390871905 758.5411546973376 L 1141 761 L 1127.2797839545622 743.8024515797597 L 1119.1378390871905 758.5411546973376" stroke-miterlimit="10" stroke-dasharray=""/></g><g><path fill="none" stroke="#000000" paint-order="fill stroke markers" d=" M 850 577 L 852 450" stroke-miterlimit="10" stroke-dasharray=""/></g><g><path fill="#FFFFFF" stroke="none" paint-order="stroke fill markers" d=" M 860.0979471793387 470.45539663464484 L 852 450 L 843.261963691983 470.19026303641874"/></g><g><path fill="none" stroke="#000000" paint-order="fill stroke markers" d=" M 860.0979471793387 470.45539663464484 L 852 450 L 843.261963691983 470.19026303641874 L 860.0979471793387 470.45539663464484" stroke-miterlimit="10" stroke-dasharray=""/></g><g><rect fill="#C0C0C0" stroke="none" x="1231" y="615" width="87.23292541503906" height="45" transform="matrix(1 0 0 1 -174 -30)" fill-opacity="0.2"/></g><g><rect fill="#FFFFD8" stroke="none" x="1224" y="608" width="87.23292541503906" height="45" transform="matrix(1 0 0 1 -174 -30)"/></g><g><path fill="none" stroke="#000000" paint-order="fill stroke markers" d=" M 1050 578 L 1137.232925415039 578 L 1137.232925415039 623 L 1050 623 L 1050 578 Z Z" stroke-miterlimit="10" stroke-dasharray=""/></g><g><path fill="none" stroke="#000000" paint-order="fill stroke markers" d=" M 1050 603 L 1137.232925415039 603" stroke-miterlimit="10" stroke-dasharray=""/></g><g><path fill="none" stroke="#000000" paint-order="fill stroke markers" d=" M 1050 613 L 1137.232925415039 613" stroke-miterlimit="10" stroke-dasharray=""/></g><g><g><path fill="none" stroke="none"/><text fill="#000000" stroke="none" font-family="&quot;Source Sans Pro&quot;" font-size="13px" font-style="normal" font-weight="bold" text-decoration="undefined" x="1268.1164627075195" y="621.5" text-anchor="middle" dominant-baseline="central" transform="matrix(1 0 0 1 -174 -30)">Configuration</text></g></g><g><path fill="none" stroke="#000000" paint-order="fill stroke markers" d=" M 1077 577 L 874 278" stroke-miterlimit="10" stroke-dasharray=""/></g><g><path fill="#FFFFFF" stroke="none" paint-order="stroke fill markers" d=" M 892.3822263226739 290.0869249779254 L 874 278 L 878.4514502704844 299.54494350165265"/></g><g><path fill="none" stroke="#000000" paint-order="fill stroke markers" d=" M 892.3822263226739 290.0869249779254 L 874 278 L 878.4514502704844 299.54494350165265 L 892.3822263226739 290.0869249779254" stroke-miterlimit="10" stroke-dasharray=""/></g><g><path fill="none" stroke="#000000" paint-order="fill stroke markers" d=" M 893 600 L 1049 600" stroke-miterlimit="10" stroke-dasharray=""/></g><g><path fill="#C0C0C0" stroke="none" paint-order="stroke fill markers" d=" M 847.0514450073242 965 C 847.0514450073242 958.3725824 852.4240274073243 953 859.0514450073242 953 C 865.6788626073242 953 871.0514450073242 958.3725824 871.0514450073242 965 C 871.0514450073242 971.6274176 865.6788626073242 977 859.0514450073242 977 C 852.4240274073243 977 847.0514450073242 971.6274176 847.0514450073242 965 Z" fill-opacity="0.2"/></g><g><path fill="#ffffff" stroke="none" paint-order="stroke fill markers" d=" M 840.0514450073242 958 C 840.0514450073242 951.3725824 845.4240274073243 946 852.0514450073242 946 C 858.6788626073242 946 864.0514450073242 951.3725824 864.0514450073242 958 C 864.0514450073242 964.6274176 858.6788626073242 970 852.0514450073242 970 C 845.4240274073243 970 840.0514450073242 964.6274176 840.0514450073242 958 Z"/></g><g><path fill="none" stroke="#000000" paint-order="fill stroke markers" d=" M 840.0514450073242 958 C 840.0514450073242 951.3725824 845.4240274073243 946 852.0514450073242 946 C 858.6788626073242 946 864.0514450073242 951.3725824 864.0514450073242 958 C 864.0514450073242 964.6274176 858.6788626073242 970 852.0514450073242 970 C 845.4240274073243 970 840.0514450073242 964.6274176 840.0514450073242 958 Z" stroke-miterlimit="10" stroke-dasharray=""/></g><g><path fill="none" stroke="#000000" paint-order="fill stroke markers" d=" M 802 995 L 902.1028900146484 995" stroke-miterlimit="10" stroke-dasharray=""/></g><g><g><path fill="none" stroke="none"/><text fill="#000000" stroke="none" font-family="&quot;Source Sans Pro&quot;" font-size="13px" font-style="normal" font-weight="bold" text-decoration="undefined" x="1026.5514450073242" y="1013.5" text-anchor="middle" dominant-baseline="central" transform="matrix(1 0 0 1 -174 -30)">Queue</text></g></g><g><g><path fill="none" stroke="none"/><text fill="#000000" stroke="none" font-family="&quot;Source Sans Pro&quot;" font-size="13px" font-style="normal" font-weight="normal" text-decoration="undefined" x="981" y="1036.5" text-anchor="start" dominant-baseline="central" transform="matrix(1 0 0 1 -174 -30)">+send(**kwargs)</text></g></g><g><path fill="#C0C0C0" stroke="none" paint-order="stroke fill markers" d=" M 509.40193939208984 965 C 509.40193939208984 958.3725824 514.7745217920899 953 521.4019393920898 953 C 528.0293569920898 953 533.4019393920898 958.3725824 533.4019393920898 965 C 533.4019393920898 971.6274176 528.0293569920898 977 521.4019393920898 977 C 514.7745217920899 977 509.40193939208984 971.6274176 509.40193939208984 965 Z" fill-opacity="0.2"/></g><g><path fill="#ffffff" stroke="none" paint-order="stroke fill markers" d=" M 502.40193939208984 958 C 502.40193939208984 951.3725824 507.7745217920899 946 514.4019393920898 946 C 521.0293569920898 946 526.4019393920898 951.3725824 526.4019393920898 958 C 526.4019393920898 964.6274176 521.0293569920898 970 514.4019393920898 970 C 507.7745217920899 970 502.40193939208984 964.6274176 502.40193939208984 958 Z"/></g><g><path fill="none" stroke="#000000" paint-order="fill stroke markers" d=" M 502.40193939208984 958 C 502.40193939208984 951.3725824 507.7745217920899 946 514.4019393920898 946 C 521.0293569920898 946 526.4019393920898 951.3725824 526.4019393920898 958 C 526.4019393920898 964.6274176 521.0293569920898 970 514.4019393920898 970 C 507.7745217920899 970 502.40193939208984 964.6274176 502.40193939208984 958 Z" stroke-miterlimit="10" stroke-dasharray=""/></g><g><path fill="none" stroke="#000000" paint-order="fill stroke markers" d=" M 458 995 L 570.8038787841797 995" stroke-miterlimit="10" stroke-dasharray=""/></g><g><g><path fill="none" stroke="none"/><text fill="#000000" stroke="none" font-family="&quot;Source Sans Pro&quot;" font-size="13px" font-style="normal" font-weight="bold" text-decoration="undefined" x="688.9019393920898" y="1013.5" text-anchor="middle" dominant-baseline="central" transform="matrix(1 0 0 1 -174 -30)">Exchange</text></g></g><g><g><path fill="none" stroke="none"/><text fill="#000000" stroke="none" font-family="&quot;Source Sans Pro&quot;" font-size="13px" font-style="normal" font-weight="normal" text-decoration="undefined" x="637" y="1036.5" text-anchor="start" dominant-baseline="central" transform="matrix(1 0 0 1 -174 -30)">+send(**kwargs)</text></g></g><g><path fill="none" stroke="#000000" paint-order="fill stroke markers" d=" M 517 835 L 515 945" stroke-miterlimit="10" stroke-dasharray=""/></g><g><path fill="#C0C0C0" stroke="none" paint-order="stroke fill markers" d=" M 1553.649398803711 781 C 1553.649398803711 774.3725824 1559.021981203711 769 1565.649398803711 769 C 1572.2768164037109 769 1577.649398803711 774.3725824 1577.649398803711 781 C 1577.649398803711 787.6274176 1572.2768164037109 793 1565.649398803711 793 C 1559.021981203711 793 1553.649398803711 787.6274176 1553.649398803711 781 Z" fill-opacity="0.2"/></g><g><path fill="#ffffff" stroke="none" paint-order="stroke fill markers" d=" M 1546.649398803711 774 C 1546.649398803711 767.3725824 1552.021981203711 762 1558.649398803711 762 C 1565.2768164037109 762 1570.649398803711 767.3725824 1570.649398803711 774 C 1570.649398803711 780.6274176 1565.2768164037109 786 1558.649398803711 786 C 1552.021981203711 786 1546.649398803711 780.6274176 1546.649398803711 774 Z"/></g><g><path fill="none" stroke="#000000" paint-order="fill stroke markers" d=" M 1546.649398803711 774 C 1546.649398803711 767.3725824 1552.021981203711 762 1558.649398803711 762 C 1565.2768164037109 762 1570.649398803711 767.3725824 1570.649398803711 774 C 1570.649398803711 780.6274176 1565.2768164037109 786 1558.649398803711 786 C 1552.021981203711 786 1546.649398803711 780.6274176 1546.649398803711 774 Z" stroke-miterlimit="10" stroke-dasharray=""/></g><g><path fill="none" stroke="#000000" paint-order="fill stroke markers" d=" M 1482 811 L 1635.2987976074219 811" stroke-miterlimit="10" stroke-dasharray=""/></g><g><g><path fill="none" stroke="none"/><text fill="#000000" stroke="none" font-family="&quot;Source Sans Pro&quot;" font-size="13px" font-style="normal" font-weight="bold" text-decoration="undefined" x="1733.149398803711" y="829.5" text-anchor="middle" dominant-baseline="central" transform="matrix(1 0 0 1 -174 -30)">EventHandler</text></g></g><g><g><path fill="none" stroke="none"/><text fill="#000000" stroke="none" font-family="&quot;Source Sans Pro&quot;" font-size="13px" font-style="normal" font-weight="normal" text-decoration="undefined" x="1661" y="852.5" text-anchor="start" dominant-baseline="central" transform="matrix(1 0 0 1 -174 -30)">+__call__(*args, **kwargs)</text></g></g><g><path fill="none" stroke="#000000" paint-order="fill stroke markers" d=" M 1369 798 L 1481 798" stroke-miterlimit="10" stroke-dasharray=""/></g><g><path fill="none" stroke="#000000" paint-order="fill stroke markers" d=" M 853 835 L 852 945" stroke-miterlimit="10" stroke-dasharray=""/></g><g><path fill="#C0C0C0" stroke="none" paint-order="stroke fill markers" d=" M 1205.1499404907227 957 C 1205.1499404907227 950.3725824 1210.5225228907227 945 1217.1499404907227 945 C 1223.7773580907226 945 1229.1499404907227 950.3725824 1229.1499404907227 957 C 1229.1499404907227 963.6274176 1223.7773580907226 969 1217.1499404907227 969 C 1210.5225228907227 969 1205.1499404907227 963.6274176 1205.1499404907227 957 Z" fill-opacity="0.2"/></g><g><path fill="#ffffff" stroke="none" paint-order="stroke fill markers" d=" M 1198.1499404907227 950 C 1198.1499404907227 943.3725824 1203.5225228907227 938 1210.1499404907227 938 C 1216.7773580907226 938 1222.1499404907227 943.3725824 1222.1499404907227 950 C 1222.1499404907227 956.6274176 1216.7773580907226 962 1210.1499404907227 962 C 1203.5225228907227 962 1198.1499404907227 956.6274176 1198.1499404907227 950 Z"/></g><g><path fill="none" stroke="#000000" paint-order="fill stroke markers" d=" M 1198.1499404907227 950 C 1198.1499404907227 943.3725824 1203.5225228907227 938 1210.1499404907227 938 C 1216.7773580907226 938 1222.1499404907227 943.3725824 1222.1499404907227 950 C 1222.1499404907227 956.6274176 1216.7773580907226 962 1210.1499404907227 962 C 1203.5225228907227 962 1198.1499404907227 956.6274176 1198.1499404907227 950 Z" stroke-miterlimit="10" stroke-dasharray=""/></g><g><path fill="none" stroke="#000000" paint-order="fill stroke markers" d=" M 1146 987 L 1274.2998809814453 987" stroke-miterlimit="10" stroke-dasharray=""/></g><g><g><path fill="none" stroke="none"/><text fill="#000000" stroke="none" font-family="&quot;Source Sans Pro&quot;" font-size="13px" font-style="normal" font-weight="bold" text-decoration="undefined" x="1384.6499404907227" y="1005.5" text-anchor="middle" dominant-baseline="central" transform="matrix(1 0 0 1 -174 -30)">Consumer</text></g></g><g><g><path fill="none" stroke="none"/><text fill="#000000" stroke="none" font-family="&quot;Source Sans Pro&quot;" font-size="13px" font-style="normal" font-weight="normal" text-decoration="undefined" x="1325" y="1028.5" text-anchor="start" dominant-baseline="central" transform="matrix(1 0 0 1 -174 -30)">+subs(queue: str)</text></g></g><g><g><path fill="none" stroke="none"/><text fill="#000000" stroke="none" font-family="&quot;Source Sans Pro&quot;" font-size="13px" font-style="normal" font-weight="normal" text-decoration="undefined" x="1325" y="1043.5" text-anchor="start" dominant-baseline="central" transform="matrix(1 0 0 1 -174 -30)">+run()</text></g></g><g><g><path fill="none" stroke="none"/><text fill="#000000" stroke="none" font-family="&quot;Source Sans Pro&quot;" font-size="13px" font-style="normal" font-weight="normal" text-decoration="undefined" x="1325" y="1058.5" text-anchor="start" dominant-baseline="central" transform="matrix(1 0 0 1 -174 -30)">+stop()</text></g></g><g><path fill="none" stroke="#000000" paint-order="fill stroke markers" d=" M 1208 835 L 1209 937" stroke-miterlimit="10" stroke-dasharray=""/></g><g><path fill="#C0C0C0" stroke="none" paint-order="stroke fill markers" d=" M 718.0874328613281 1325 C 718.0874328613281 1318.3725824 723.4600152613282 1313 730.0874328613281 1313 C 736.7148504613281 1313 742.0874328613281 1318.3725824 742.0874328613281 1325 C 742.0874328613281 1331.6274176 736.7148504613281 1337 730.0874328613281 1337 C 723.4600152613282 1337 718.0874328613281 1331.6274176 718.0874328613281 1325 Z" fill-opacity="0.2"/></g><g><path fill="#ffffff" stroke="none" paint-order="stroke fill markers" d=" M 711.0874328613281 1318 C 711.0874328613281 1311.3725824 716.4600152613282 1306 723.0874328613281 1306 C 729.7148504613281 1306 735.0874328613281 1311.3725824 735.0874328613281 1318 C 735.0874328613281 1324.6274176 729.7148504613281 1330 723.0874328613281 1330 C 716.4600152613282 1330 711.0874328613281 1324.6274176 711.0874328613281 1318 Z"/></g><g><path fill="none" stroke="#000000" paint-order="fill stroke markers" d=" M 711.0874328613281 1318 C 711.0874328613281 1311.3725824 716.4600152613282 1306 723.0874328613281 1306 C 729.7148504613281 1306 735.0874328613281 1311.3725824 735.0874328613281 1318 C 735.0874328613281 1324.6274176 729.7148504613281 1330 723.0874328613281 1330 C 716.4600152613282 1330 711.0874328613281 1324.6274176 711.0874328613281 1318 Z" stroke-miterlimit="10" stroke-dasharray=""/></g><g><path fill="none" stroke="#000000" paint-order="fill stroke markers" d=" M 650 1355 L 796.1748657226562 1355" stroke-miterlimit="10" stroke-dasharray=""/></g><g><g><path fill="none" stroke="none"/><text fill="#000000" stroke="none" font-family="&quot;Source Sans Pro&quot;" font-size="13px" font-style="normal" font-weight="bold" text-decoration="undefined" x="897.5874328613281" y="1373.5" text-anchor="middle" dominant-baseline="central" transform="matrix(1 0 0 1 -174 -30)">Gettable</text></g></g><g><g><path fill="none" stroke="none"/><text fill="#000000" stroke="none" font-family="&quot;Source Sans Pro&quot;" font-size="13px" font-style="normal" font-weight="normal" text-decoration="undefined" x="829" y="1396.5" text-anchor="start" dominant-baseline="central" transform="matrix(1 0 0 1 -174 -30)">+get(timeout: int = None)</text></g></g><g><path fill="#C0C0C0" stroke="none" paint-order="stroke fill markers" d=" M 945.831428527832 1325 C 945.831428527832 1318.3725824 951.2040109278321 1313 957.831428527832 1313 C 964.458846127832 1313 969.831428527832 1318.3725824 969.831428527832 1325 C 969.831428527832 1331.6274176 964.458846127832 1337 957.831428527832 1337 C 951.2040109278321 1337 945.831428527832 1331.6274176 945.831428527832 1325 Z" fill-opacity="0.2"/></g><g><path fill="#ffffff" stroke="none" paint-order="stroke fill markers" d=" M 938.831428527832 1318 C 938.831428527832 1311.3725824 944.2040109278321 1306 950.831428527832 1306 C 957.458846127832 1306 962.831428527832 1311.3725824 962.831428527832 1318 C 962.831428527832 1324.6274176 957.458846127832 1330 950.831428527832 1330 C 944.2040109278321 1330 938.831428527832 1324.6274176 938.831428527832 1318 Z"/></g><g><path fill="none" stroke="#000000" paint-order="fill stroke markers" d=" M 938.831428527832 1318 C 938.831428527832 1311.3725824 944.2040109278321 1306 950.831428527832 1306 C 957.458846127832 1306 962.831428527832 1311.3725824 962.831428527832 1318 C 962.831428527832 1324.6274176 957.458846127832 1330 950.831428527832 1330 C 944.2040109278321 1330 938.831428527832 1324.6274176 938.831428527832 1318 Z" stroke-miterlimit="10" stroke-dasharray=""/></g><g><path fill="none" stroke="#000000" paint-order="fill stroke markers" d=" M 874 1355 L 1027.662857055664 1355" stroke-miterlimit="10" stroke-dasharray=""/></g><g><g><path fill="none" stroke="none"/><text fill="#000000" stroke="none" font-family="&quot;Source Sans Pro&quot;" font-size="13px" font-style="normal" font-weight="bold" text-decoration="undefined" x="1125.331428527832" y="1373.5" text-anchor="middle" dominant-baseline="central" transform="matrix(1 0 0 1 -174 -30)">Readable</text></g></g><g><g><path fill="none" stroke="none"/><text fill="#000000" stroke="none" font-family="&quot;Source Sans Pro&quot;" font-size="13px" font-style="normal" font-weight="normal" text-decoration="undefined" x="1053" y="1396.5" text-anchor="start" dominant-baseline="central" transform="matrix(1 0 0 1 -174 -30)">+read(timeout: int = None)</text></g></g><g><rect fill="#C0C0C0" stroke="none" x="663" y="1167" width="63.442962646484375" height="45" transform="matrix(1 0 0 1 -174 -30)" fill-opacity="0.2"/></g><g><rect fill="#FFFFD8" stroke="none" x="656" y="1160" width="63.442962646484375" height="45" transform="matrix(1 0 0 1 -174 -30)"/></g><g><path fill="none" stroke="#000000" paint-order="fill stroke markers" d=" M 482 1130 L 545.4429626464844 1130 L 545.4429626464844 1175 L 482 1175 L 482 1130 Z Z" stroke-miterlimit="10" stroke-dasharray=""/></g><g><path fill="none" stroke="#000000" paint-order="fill stroke markers" d=" M 482 1155 L 545.4429626464844 1155" stroke-miterlimit="10" stroke-dasharray=""/></g><g><path fill="none" stroke="#000000" paint-order="fill stroke markers" d=" M 482 1165 L 545.4429626464844 1165" stroke-miterlimit="10" stroke-dasharray=""/></g><g><g><path fill="none" stroke="none"/><text fill="#000000" stroke="none" font-family="&quot;Source Sans Pro&quot;" font-size="13px" font-style="normal" font-weight="bold" text-decoration="undefined" x="688.2214813232422" y="1173.5" text-anchor="middle" dominant-baseline="central" transform="matrix(1 0 0 1 -174 -30)">Exchange</text></g></g><g><path fill="none" stroke="#000000" paint-order="fill stroke markers" d=" M 513 1129 L 514 1019" stroke-miterlimit="10" stroke-dasharray=""/></g><g><path fill="#FFFFFF" stroke="none" paint-order="stroke fill markers" d=" M 522.2339193679572 1039.401043400816 L 514 1019 L 505.3965440888278 1039.247976352824"/></g><g><path fill="none" stroke="#000000" paint-order="fill stroke markers" d=" M 522.2339193679572 1039.401043400816 L 514 1019 L 505.3965440888278 1039.247976352824 L 522.2339193679572 1039.401043400816" stroke-miterlimit="10" stroke-dasharray=""/></g><g><rect fill="#C0C0C0" stroke="none" x="1007" y="1167" width="46.39996337890625" height="45" transform="matrix(1 0 0 1 -174 -30)" fill-opacity="0.2"/></g><g><rect fill="#FFFFD8" stroke="none" x="1000" y="1160" width="46.39996337890625" height="45" transform="matrix(1 0 0 1 -174 -30)"/></g><g><path fill="none" stroke="#000000" paint-order="fill stroke markers" d=" M 826 1130 L 872.3999633789062 1130 L 872.3999633789062 1175 L 826 1175 L 826 1130 Z Z" stroke-miterlimit="10" stroke-dasharray=""/></g><g><path fill="none" stroke="#000000" paint-order="fill stroke markers" d=" M 826 1155 L 872.3999633789062 1155" stroke-miterlimit="10" stroke-dasharray=""/></g><g><path fill="none" stroke="#000000" paint-order="fill stroke markers" d=" M 826 1165 L 872.3999633789062 1165" stroke-miterlimit="10" stroke-dasharray=""/></g><g><g><path fill="none" stroke="none"/><text fill="#000000" stroke="none" font-family="&quot;Source Sans Pro&quot;" font-size="13px" font-style="normal" font-weight="bold" text-decoration="undefined" x="1023.6999816894531" y="1173.5" text-anchor="middle" dominant-baseline="central" transform="matrix(1 0 0 1 -174 -30)">Queue</text></g></g><g><path fill="none" stroke="#000000" paint-order="fill stroke markers" d=" M 849 1129 L 851 1019" stroke-miterlimit="10" stroke-dasharray=""/></g><g><path fill="#FFFFFF" stroke="none" paint-order="stroke fill markers" d=" M 859.0481535356375 1039.475039063865 L 851 1019 L 842.2128649739612 1039.1689429081982"/></g><g><path fill="none" stroke="#000000" paint-order="fill stroke markers" d=" M 859.0481535356375 1039.475039063865 L 851 1019 L 842.2128649739612 1039.1689429081982 L 859.0481535356375 1039.475039063865" stroke-miterlimit="10" stroke-dasharray=""/></g><g><path fill="none" stroke="#000000" paint-order="fill stroke markers" d=" M 833 1176 L 748 1305" stroke-miterlimit="10" stroke-dasharray=""/></g><g><path fill="#FFFFFF" stroke="none" paint-order="stroke fill markers" d=" M 752.1531150124197 1283.395564443994 L 748 1305 L 766.2133386736892 1292.6600529029702"/></g><g><path fill="none" stroke="#000000" paint-order="fill stroke markers" d=" M 752.1531150124197 1283.395564443994 L 748 1305 L 766.2133386736892 1292.6600529029702 L 752.1531150124197 1283.395564443994" stroke-miterlimit="10" stroke-dasharray=""/></g><g><path fill="none" stroke="#000000" paint-order="fill stroke markers" d=" M 862 1176 L 930 1305" stroke-miterlimit="10" stroke-dasharray=""/></g><g><path fill="#FFFFFF" stroke="none" paint-order="stroke fill markers" d=" M 913.0744019503663 1290.945672173233 L 930 1305 L 927.9697053547918 1283.0938843321405"/></g><g><path fill="none" stroke="#000000" paint-order="fill stroke markers" d=" M 913.0744019503663 1290.945672173233 L 930 1305 L 927.9697053547918 1283.0938843321405 L 913.0744019503663 1290.945672173233" stroke-miterlimit="10" stroke-dasharray=""/></g><g><rect fill="#C0C0C0" stroke="none" x="1359" y="1175" width="67.13496398925781" height="45" transform="matrix(1 0 0 1 -174 -30)" fill-opacity="0.2"/></g><g><rect fill="#FFFFD8" stroke="none" x="1352" y="1168" width="67.13496398925781" height="45" transform="matrix(1 0 0 1 -174 -30)"/></g><g><path fill="none" stroke="#000000" paint-order="fill stroke markers" d=" M 1178 1138 L 1245.1349639892578 1138 L 1245.1349639892578 1183 L 1178 1183 L 1178 1138 Z Z" stroke-miterlimit="10" stroke-dasharray=""/></g><g><path fill="none" stroke="#000000" paint-order="fill stroke markers" d=" M 1178 1163 L 1245.1349639892578 1163" stroke-miterlimit="10" stroke-dasharray=""/></g><g><path fill="none" stroke="#000000" paint-order="fill stroke markers" d=" M 1178 1173 L 1245.1349639892578 1173" stroke-miterlimit="10" stroke-dasharray=""/></g><g><g><path fill="none" stroke="none"/><text fill="#000000" stroke="none" font-family="&quot;Source Sans Pro&quot;" font-size="13px" font-style="normal" font-weight="bold" text-decoration="undefined" x="1386.067481994629" y="1181.5" text-anchor="middle" dominant-baseline="central" transform="matrix(1 0 0 1 -174 -30)">Consumer</text></g></g><g><path fill="none" stroke="#000000" paint-order="fill stroke markers" d=" M 1211 1137 L 1210 1041" stroke-miterlimit="10" stroke-dasharray=""/></g><g><path fill="#FFFFFF" stroke="none" paint-order="stroke fill markers" d=" M 1218.6302896944176 1061.2365535551494 L 1210 1041 L 1201.7931321198362 1061.411940613218"/></g><g><path fill="none" stroke="#000000" paint-order="fill stroke markers" d=" M 1218.6302896944176 1061.2365535551494 L 1210 1041 L 1201.7931321198362 1061.411940613218 L 1218.6302896944176 1061.2365535551494" stroke-miterlimit="10" stroke-dasharray=""/></g></g></svg>